<svg xmlns="http://www.w3.org/2000/svg" viewBox="0 0 256 256"><defs><linearGradient id="c" x1="1977.72" x2="1977.48" y1="-1964.06" y2="-1963.85" gradientTransform="matrix(776 0 0 776 -1534488 1524159)" gradientUnits="userSpaceOnUse"><stop offset="0" stop-color="#b6509e"/><stop offset="1" stop-color="#2ebac6"/></linearGradient><style>.l{fill:#2f3030}.m{fill:#828384}</style></defs><g id="a"><g id="b"><circle cx="128" cy="128" r="128" style="fill:url(#c)"/><path d="M184.02 179 140.74 74.36c-2.44-5.41-6.07-8.05-10.85-8.05h-3.83c-4.78 0-8.41 2.64-10.85 8.05l-18.84 45.59H82.12a7.796 7.796 0 0 0-7.75 7.75v.1c.03 4.26 3.5 7.72 7.75 7.75h7.65L71.79 179c-.33.96-.53 1.95-.53 2.97 0 2.44.76 4.35 2.11 5.84 1.35 1.48 3.3 2.21 5.74 2.21 1.62-.03 3.17-.53 4.45-1.48 1.39-.96 2.34-2.34 3.1-3.93l19.79-49.09h13.72a7.796 7.796 0 0 0 7.75-7.75v-.2c-.03-4.26-3.5-7.72-7.75-7.75h-7.32l15.11-37.64 41.17 102.4c.76 1.58 1.72 2.97 3.1 3.93 1.29.96 2.87 1.45 4.45 1.48 2.44 0 4.35-.73 5.74-2.21s2.11-3.4 2.11-5.84c.03-.99-.13-2.01-.53-2.94Z" style="fill:#fff"/></g></g><g id="f"><g id="g"><path d="M216.78 219.38 256 195.51l-39.22-65.01v88.88z" class="l"/><path d="m216.78 130.5-39.22 65.01 39.22 23.87V130.5z" class="m"/><path d="M216.78 256 256 200.68l-39.22 25.47V256z" class="l"/><path d="m216.78 226.15-39.22-25.47L216.78 256v-29.85z" class="m"/><path d="M216.78 171.63v47.75L256 195.51l-39.22-23.88z" style="fill:#131313"/><path d="m216.78 171.63-39.22 23.88 39.22 23.87v-47.75z" style="fill:#343535"/></g></g></svg>