<svg xmlns="http://www.w3.org/2000/svg" viewBox="0 0 256 256"><path d="M198 85.63h-22.55c-2.61 0-5.11-1.12-6.86-3.08l-9.15-10.32c-1.38-1.54-3.3-2.45-5.37-2.45s-3.99.9-5.37 2.45l-7.87 8.88c-2.55 2.87-6.28 4.57-10.11 4.57H7.26c-3.51 9.95-5.8 20.53-6.7 31.54H117.1c2.07 0 3.99-.85 5.43-2.34l10.85-11.33c1.33-1.44 3.24-2.23 5.16-2.23h.43c2.07 0 3.99.9 5.37 2.45l9.15 10.32a9.2 9.2 0 0 0 6.86 3.08h95.1c-.9-10.96-3.19-21.59-6.7-31.59l-50.74.05ZM71.09 183.61c2.07 0 3.99-.85 5.43-2.34l10.85-11.33a7.17 7.17 0 0 1 5.21-2.23h.43c2.07 0 4.04.9 5.37 2.39l9.15 10.32a9.2 9.2 0 0 0 6.86 3.08h128.93c4.84-10 8.35-20.69 10.48-31.91H130.03c-2.61 0-5.11-1.12-6.86-3.08l-9.15-10.21c-1.38-1.54-3.3-2.39-5.37-2.39s-4.04.9-5.37 2.39l-7.87 8.88c-2.55 2.93-6.28 4.57-10.16 4.57H2.31c2.13 11.22 5.64 21.91 10.48 31.91zm91.43-132.5c2.07 0 3.99-.85 5.43-2.34l10.85-11.33c1.33-1.44 3.24-2.23 5.21-2.23h.43c2.07 0 3.99.9 5.37 2.45l9.15 10.37a9.2 9.2 0 0 0 6.86 3.08h24.52C206.99 20.05 169.86 0 128.05 0S49.07 20.05 25.72 51.11zm-49.2 164.15H79.81c-2.61 0-5.11-1.12-6.86-3.08l-9.15-10.32c-1.38-1.54-3.3-2.39-5.37-2.39s-4.04.9-5.37 2.39l-7.87 8.88c-2.55 2.93-6.28 4.57-10.16 4.57h-.53c23.35 25 56.59 40.69 93.56 40.69s70.16-15.69 93.56-40.69l-108.29-.05Z" style="fill:#fff"/></svg>