<svg xmlns="http://www.w3.org/2000/svg" viewBox="0 0 256 256"><defs><clipPath id="a"><path fill="none" d="M14.525 0h226.95v256H14.525z"/></clipPath></defs><g clip-path="url(#a)"><path fill="#213147" d="M23.142 77.819v100.362a17.92 17.92 0 0 0 8.973 15.526l86.934 50.193a17.964 17.964 0 0 0 17.925 0l86.935-50.192a17.922 17.922 0 0 0 8.973-15.526V77.819a17.921 17.921 0 0 0-8.973-15.526L136.974 12.1a17.969 17.969 0 0 0-17.925 0L32.094 62.293a17.9 17.9 0 0 0-8.952 15.526Z"/><path fill="#12aaff" d="m146.977 147.465-12.4 33.993a4.355 4.355 0 0 0 0 2.92l21.329 58.492 24.671-14.246-29.609-81.159a2.122 2.122 0 0 0-3.991 0ZM171.834 90.3a2.122 2.122 0 0 0-3.992 0l-12.4 33.994a4.343 4.343 0 0 0 0 2.92l34.946 95.76 24.67-14.243Z"/><path fill="#9dcced" d="M128 15.862a3.75 3.75 0 0 1 1.765.462l94.079 54.31a3.538 3.538 0 0 1 1.766 3.046v108.6a3.511 3.511 0 0 1-1.766 3.047l-94.079 54.31a3.474 3.474 0 0 1-1.765.463 3.749 3.749 0 0 1-1.765-.461l-94.079-54.273a3.538 3.538 0 0 1-1.766-3.047V73.7a3.512 3.512 0 0 1 1.766-3.046l94.079-54.31a3.543 3.543 0 0 1 1.765-.482ZM128 0a19.341 19.341 0 0 0-9.708 2.605L24.233 56.894A19.4 19.4 0 0 0 14.525 73.7v108.6a19.4 19.4 0 0 0 9.708 16.807l94.08 54.31a19.385 19.385 0 0 0 19.416 0l94.08-54.31a19.4 19.4 0 0 0 9.708-16.807V73.7a19.4 19.4 0 0 0-9.708-16.807l-94.1-54.289A19.341 19.341 0 0 0 128 0Z"/><path fill="#213147" d="m65.777 223.1 8.657-23.7 17.421 14.476-16.286 14.875Z"/><path fill="#fff" d="M120.077 65.928H96.226a4.244 4.244 0 0 0-3.993 2.794L41.106 208.854 65.777 223.1l56.3-154.314a2.113 2.113 0 0 0-2-2.858ZM161.812 65.928h-23.851a4.241 4.241 0 0 0-3.992 2.794L75.592 228.73l24.67 14.245 63.547-174.19a2.131 2.131 0 0 0-1.997-2.857Z"/></g></svg>