<svg baseProfile="basic" xmlns="http://www.w3.org/2000/svg" viewBox="0 0 256 256"><g fill-rule="evenodd" clip-rule="evenodd"><path fill="#FFF" d="M128 0c70.7 0 128 57.3 128 128s-57.3 128-128 128S0 198.7 0 128 57.3 0 128 0z"/><path fill="#E6E6E6" d="M127.8 54.2c40.8 0 73.8 33.1 73.8 73.8 0 40.8-33.1 73.8-73.8 73.8C87 201.8 54 168.7 54 128c-.1-40.8 33-73.8 73.8-73.8z"/><path d="M130 21.9c-1-.9-1.5-1-1.6-1-.1 0-.6 0-1.6 1s-2.3 2.6-3.6 5.2c-2.7 5.1-5.3 12.8-7.5 22.8-2.5 11.1-4.5 24.8-5.7 40.1 6 2.9 12.2 6.1 18.4 9.4 6.3-3.4 12.4-6.5 18.4-9.4-1.2-15.3-3.2-29-5.7-40.2-2.2-10-4.8-17.7-7.5-22.8-1.3-2.5-2.5-4.1-3.6-5.1zm-6.9 80.4c-4.6-2.4-9.1-4.8-13.6-6.9-.3 4.9-.6 10-.8 15.2 2.3-1.4 4.7-2.8 7.1-4.2 2.5-1.4 4.9-2.7 7.3-4.1zm-18-14.6c3.6-42 12.7-71.8 23.3-71.8 10.6 0 19.7 29.8 23.3 71.8 38.2-17.9 68.5-24.9 73.9-15.8 5.3 9.2-16 31.9-50.6 56 34.6 24.1 55.9 46.9 50.6 56-5.3 9.2-35.7 2.1-73.9-15.8-3.6 42-12.7 71.8-23.3 71.8-10.6 0-19.7-29.8-23.3-71.8C66.9 186 36.5 193 31.2 183.9c-5.3-9.2 16-31.9 50.6-56C47.3 103.9 26 81.1 31.3 72c5.3-9.2 35.6-2.2 73.8 15.7zM86.3 125c-12.7-8.7-23.5-17.3-32-25-7.5-6.9-12.9-13-16-17.8-1.5-2.4-2.4-4.4-2.7-5.7-.3-1.3-.1-1.8 0-1.9 0-.1.3-.5 1.6-.9 1.4-.4 3.4-.7 6.3-.6 5.8.2 13.7 1.9 23.5 4.9 10.9 3.4 23.8 8.6 37.7 15.2-.5 6.6-.8 13.5-1 20.7-6.1 3.6-11.9 7.3-17.4 11.1zm0 6c-12.7 8.7-23.5 17.3-32 25-7.5 6.9-12.9 13-16 17.8-1.5 2.4-2.4 4.4-2.7 5.7-.3 1.3-.1 1.8 0 1.9 0 .1.3.5 1.6.9 1.4.4 3.4.7 6.3.6 5.8-.2 13.7-1.9 23.5-4.9 10.9-3.4 23.8-8.6 37.7-15.2-.5-6.6-.8-13.5-1-20.7-6.1-3.6-11.9-7.3-17.4-11.1zm17.2 5.3c-4.4-2.8-8.7-5.5-12.8-8.3 4.1-2.8 8.4-5.5 12.8-8.3 0 2.7-.1 5.5-.1 8.3.1 2.8.1 5.6.1 8.3zm5.1 3.1c-.1-3.7-.1-7.6-.1-11.4 0-3.9 0-7.7.1-11.4 3.2-1.9 6.5-3.9 9.8-5.8 3.3-1.9 6.7-3.8 10-5.6 3.3 1.8 6.6 3.7 10 5.6 3.3 1.9 6.6 3.9 9.8 5.8.1 3.7.1 7.6.1 11.4s0 7.7-.1 11.4c-3.2 1.9-6.5 3.9-9.8 5.8-3.3 1.9-6.7 3.8-10 5.6-3.3-1.8-6.6-3.7-10-5.6-3.3-1.9-6.6-3.8-9.8-5.8zm.2 6c.2 5.2.4 10.3.8 15.2 4.4-2.2 9-4.5 13.6-6.9-2.4-1.3-4.8-2.7-7.2-4.1-2.5-1.4-4.9-2.8-7.2-4.2zm19.6 11.1c-6.3 3.4-12.4 6.5-18.4 9.4 1.2 15.3 3.2 29 5.7 40.2 2.2 10 4.8 17.7 7.5 22.8 1.3 2.6 2.6 4.2 3.6 5.2 1 .9 1.5 1 1.6 1 .1 0 .6 0 1.6-1s2.3-2.6 3.6-5.2c2.7-5.1 5.3-12.8 7.5-22.8 2.5-11.2 4.5-24.9 5.7-40.2-6-2.8-12.2-6-18.4-9.4zm23.7 6.4c13.9 6.6 26.7 11.7 37.7 15.2 9.7 3.1 17.7 4.7 23.5 4.9 2.9.1 4.9-.1 6.3-.6 1.3-.4 1.6-.9 1.6-.9 0-.1.3-.5 0-1.9s-1.1-3.3-2.7-5.7c-3.1-4.9-8.5-11-16-17.8-8.5-7.8-19.3-16.3-32-25-5.5 3.7-11.3 7.5-17.4 11.2-.2 7.1-.6 14-1 20.6zm18.4-37.9c12.7-8.7 23.5-17.3 32-25 7.5-6.9 12.9-13 16-17.8 1.5-2.4 2.4-4.4 2.7-5.7.3-1.3.1-1.8 0-1.9 0-.1-.3-.5-1.6-.9-1.4-.4-3.4-.7-6.3-.6-5.8.2-13.7 1.9-23.5 4.9-10.9 3.4-23.8 8.6-37.7 15.2.5 6.6.8 13.5 1 20.7 6.1 3.6 11.9 7.3 17.4 11.1zm-17.3-5.3c4.4 2.8 8.7 5.5 12.8 8.3-4.1 2.8-8.4 5.5-12.8 8.3 0-2.7.1-5.5.1-8.3 0-2.8 0-5.6-.1-8.3zm-5.2-9.1c-.2-5.2-.4-10.3-.8-15.2-4.4 2.2-9 4.5-13.6 6.9 2.4 1.3 4.8 2.7 7.2 4.1 2.5 1.4 4.8 2.8 7.2 4.2zm-.8 50c-4.4-2.2-9-4.5-13.6-6.9 2.4-1.3 4.8-2.7 7.2-4.1l7.2-4.2c-.2 5.2-.5 10.3-.8 15.2z"/><path d="M56.8 96.6c4.4 0 7.9 3.5 7.9 7.9s-3.5 7.9-7.9 7.9-7.9-3.5-7.9-7.9 3.5-7.9 7.9-7.9zM182 69.6c4.4 0 7.9 3.5 7.9 7.9s-3.5 7.9-7.9 7.9-7.9-3.5-7.9-7.9 3.5-7.9 7.9-7.9zM112.5 193.4c4.4 0 7.9 3.5 7.9 7.9s-3.5 7.9-7.9 7.9-7.9-3.5-7.9-7.9 3.5-7.9 7.9-7.9zM127.9 114.6c7.4 0 13.3 6 13.3 13.3 0 7.4-6 13.3-13.3 13.3-7.4 0-13.3-6-13.3-13.3 0-7.3 6-13.3 13.3-13.3z"/></g></svg>