<svg baseProfile="basic" xmlns="http://www.w3.org/2000/svg" viewBox="0 0 256 256"><circle fill="#FFF" cx="128" cy="128" r="128"/><path fill="#431E9A" d="M164.8 18.1l-35.3 93.1L94 122zM182.4 123.8c3-3.8 1.9-8.8-1.5-11.1L128 119l-55.3 20.7c1.1 2.5 3.6 4.4 6.9 4.4h46.9l.5 23.9-36.1 70 91.5-114.2z"/><linearGradient id="a" gradientUnits="userSpaceOnUse" x1="76.327" y1="223.425" x2="150.842" y2="148.91"><stop offset=".62" stop-color="#6bc7b2"/><stop offset="1" stop-color="#3d8efa"/></linearGradient><path fill="url(#a)" d="M90.9 238l35.6-93.9h19.6z"/><linearGradient id="b" gradientUnits="userSpaceOnUse" x1="85.604" y1="152.605" x2="192.437" y2="45.771"><stop offset=".068" stop-color="#6bc7b2"/><stop offset=".225" stop-color="#4da0e1"/><stop offset=".337" stop-color="#3a88fe"/><stop offset=".524" stop-color="#4634b3"/><stop offset=".62" stop-color="#4b0d91"/></linearGradient><path fill="url(#b)" d="M73.8 132.1c-1.9 2.4-2.1 5.3-1.1 7.6l108.1-27.1c-1.3-.9-2.8-1.4-4.6-1.4h-67l55.5-93.1-90.9 114z"/></svg>