<svg baseProfile="basic" xmlns="http://www.w3.org/2000/svg" viewBox="0 0 256 256"><path fill="#FCFCFC" d="M127.9 0C57.2.1-.1 57.5 0 128.2c0 33.9 13.5 66.4 37.5 90.4 50 49.9 131.1 49.9 181-.2s49.9-131.1-.2-181C194.3 13.5 161.8 0 127.9 0zm0 243.3c-63.7.1-115.3-51.5-115.4-115.2S64 12.8 127.7 12.8C191.4 12.7 243 64.3 243.1 128v.1c0 63.6-51.6 115.2-115.2 115.2zm-68.8-56.9c-9.9-21-10.8-46.8-1.9-68.3 5.1-12.4 13.2-23.4 23.5-32 14.4-11.9 33.1-19 51.8-18.9l.1-11.5v-2.2h-2.4c-24.1.9-47 10.7-64.4 27.5-15.4 15.1-25.1 35.9-27.6 57.3-2.7 23.1 3.8 47.3 18.3 65.6l.2.3c5.9 7.4 12.9 14.1 21.3 18.6 13.9 7.7 29.5 11.9 45.4 12.5-27.3-5-52.4-23.7-64.3-48.9zm138.7 15.2l-8.1.6c-22.7 1.3-47.7.7-67.7-11.4-5.5-3.3-10.5-7.6-14.6-12.5-14.4-17.1-13.9-43 4.5-57.2 16-12.3 40.2-10 53.1 5.8 1.1 1.4 3.7 4.6 3.7 4.6s4.2-2.2 5.6-2.9l.4-.2.3-.1.7-.4.4-.2 3.2-1.6 1.8-.9-.1-.1c-3.7-6.2-8.7-11.7-14.6-15.9-11.3-8-25.2-11.4-38.9-9.4-22 3.3-40.2 20.3-43.8 42.3-3.7 22.8 7.7 44.6 26.4 57.3 19.5 13.2 44 15 67.1 14.1 5.4-.2 16.5-1.2 16.4-1.3 4.5-3.7 8.7-7.6 12.6-11.9 0 0-7.3 1.2-8.4 1.3zm-38.3 20.5c-2.8-.1-5.5-.2-8.3-.5-22.8-2.2-46-10.8-61.1-28.7-13.9-16.6-19.8-40.2-13-61 10.3-31.5 44.3-48.7 75.8-38.3 1 .3 2 .7 3.1 1.1 0 0 2.7-5.9 3-6.4v-.1l.1-.2.2-.4c.9-1.8 1.7-3.7 2.6-5.5-19.1-6.8-39.7-7.2-58.5 1.3-37.3 17-53.8 61.1-36.8 98.4 2.2 4.8 4.9 9.4 8.1 13.7 8.2 11 19.5 19.4 31.6 25.7 19.2 9.9 46.8 11.2 48.8 10.7 9.5-2.3 23.2-8.8 26-11-4.1.8-11.2 1.1-15.4 1.2-2.1.1-4.1.1-6.2 0z"/></svg>