<svg baseProfile="basic" xmlns="http://www.w3.org/2000/svg" viewBox="0 0 256 256"><linearGradient id="a" gradientUnits="userSpaceOnUse" x1="128" y1="-492" x2="128" y2="-748" gradientTransform="matrix(1 0 0 -1 0 -492)"><stop offset="0" stop-color="#54dade"/><stop offset=".762" stop-color="#24c7d6"/></linearGradient><path fill="url(#a)" d="M128 0c70.7 0 128 57.3 128 128s-57.3 128-128 128S0 198.7 0 128 57.3 0 128 0z"/><path fill-rule="evenodd" clip-rule="evenodd" fill="#633001" d="M127.9 217.2c-26.2 0-47.3-6.3-62.1-17.6-14.9-11.4-22.9-27.7-22.9-46 0-17.7 7.9-30.4 16.8-39.1 7-6.8 14.7-11.1 20.1-13.6-1.2-3.7-2.7-8.6-4.1-13.7-1.8-6.8-3.6-14.7-3.6-20.5 0-6.9 1.5-13.8 5.5-19.2 4.3-5.7 10.7-8.7 18.4-8.7 6 0 11.2 2.2 15.2 6.1 3.8 3.7 6.4 8.6 8.2 13.7 3.1 9 4.3 20.3 4.7 31.6h7.4c.3-11.3 1.5-22.6 4.7-31.6 1.8-5.1 4.3-10 8.2-13.7 4-3.9 9.2-6.1 15.2-6.1 7.7 0 14.2 3 18.4 8.7 4 5.4 5.5 12.3 5.5 19.2 0 5.8-1.8 13.7-3.6 20.5-1.4 5.1-2.9 9.9-4.1 13.7 5.4 2.5 13.1 6.8 20.1 13.6 8.9 8.6 16.8 21.4 16.8 39.1 0 18.4-7.9 34.6-22.9 46-14.8 11.3-35.9 17.6-62.1 17.6h.2z"/><path fill="#D1884F" d="M96.3 45.4c-11.3 0-16.6 8.5-16.6 20.4 0 9.4 6.1 28.2 8.6 35.5.6 1.6-.3 3.5-1.9 4.1-9.1 3.6-35.9 16.9-35.9 47.2 0 32 27.3 56.1 77.5 56.1h.2c50.3 0 77.5-24.1 77.5-56.1 0-30.3-26.8-43.6-35.9-47.2-1.6-.6-2.5-2.4-1.9-4.1 2.5-7.3 8.6-26.1 8.6-35.5 0-11.8-5.2-20.4-16.6-20.4-16.3 0-20.4 23.4-20.7 48.4 0 1.7-1.4 3-3 3H120c-1.7 0-3-1.4-3-3-.3-25.1-4.4-48.4-20.7-48.4z"/><path fill="#FEDC90" d="M128.1 198.4c-36.9 0-77.6-20-77.6-45.8v.1c0 32 27.3 56.1 77.6 56.1s77.6-24.1 77.6-56.1v-.1c-.1 25.9-40.7 45.8-77.6 45.8z"/><path fill="#633001" d="M107.5 144.7c0 8.7-4.1 13.3-9.1 13.3s-9.1-4.5-9.1-13.3 4.1-13.3 9.1-13.3c5.1 0 9.1 4.6 9.1 13.3zm59.3 0c0 8.7-4.1 13.3-9.1 13.3s-9.1-4.5-9.1-13.3 4.1-13.3 9.1-13.3 9.1 4.6 9.1 13.3z"/></svg>