<svg baseProfile="basic" xmlns="http://www.w3.org/2000/svg" viewBox="0 0 256 256"><path fill-rule="evenodd" clip-rule="evenodd" fill="#F4B731" d="M30.7 18.9H119c53.7 0 94.4 28.9 109.5 70.9H256v25.4h-21.7c.4 4 .6 8.1.6 12.3v.6c0 4.7-.3 9.3-.8 13.8H256v25.4h-28c-15.5 41.4-55.9 70-109 70H30.7v-70H0v-25.4h30.7v-26.6H0V89.7h30.7V18.9zm24.7 148.2v47.2H119c39.2 0 68.4-18.9 82-47.2H55.4zm153.1-25.3H55.4v-26.6h153.2c.6 4.2.9 8.5.9 12.9v.6c-.1 4.4-.4 8.8-1 13.1zM119 41.6c39.4 0 68.7 19.4 82.2 48.1H55.4V41.6H119z"/><path fill-rule="evenodd" clip-rule="evenodd" d="M193.3 130.5c34.7 0 62.8 28.1 62.8 62.8S227.9 256 193.3 256s-62.8-28.1-62.8-62.8 28.1-62.7 62.8-62.7z"/><path fill="#F0B90B" d="M165 193.3v16.6l14.1 8.3v9.7l-22.3-13.1v-26.3l8.2 4.8zm0-16.6v9.7l-8.2-4.9v-9.7l8.2-4.9 8.3 4.9-8.3 4.9zm20-4.9l8.2-4.9 8.3 4.9-8.3 4.9-8.2-4.9zm-14.1 34.6v-9.7l8.2 4.9v9.7l-8.2-4.9zm14.1 15.2l8.2 4.9 8.3-4.9v9.7l-8.3 4.9-8.2-4.9v-9.7zm28.3-49.8l8.2-4.9 8.3 4.9v9.7l-8.3 4.9v-9.7l-8.2-4.9zm8.2 38v-16.6l8.2-4.9v26.3l-22.3 13.1V218l14.1-8.2zm-5.9-3.4l-8.2 4.8v-9.7l8.2-4.9v9.8zm0-26.3v9.7l-14.1 8.3v16.6l-8.2 4.8-8.2-4.8v-16.6l-14.1-8.3v-9.7l8.2-4.9 14.1 8.3 14.1-8.3 8.2 4.9zm-44.7-16.6l22.3-13.2 22.3 13.2-8.2 4.9-14.1-8.3-14.1 8.3-8.2-4.9z"/></svg>