<svg baseProfile="basic" xmlns="http://www.w3.org/2000/svg" viewBox="0 0 256 256"><path fill-rule="evenodd" clip-rule="evenodd" fill="#F4B731" d="M30.7 18.9H119c53.7 0 94.4 28.9 109.5 70.9H256v25.4h-21.7c.4 4 .6 8.1.6 12.3v.6c0 4.7-.3 9.3-.8 13.8H256v25.4h-28c-15.5 41.4-55.9 70-109 70H30.7v-70H0v-25.4h30.7v-26.6H0V89.7h30.7V18.9zm24.7 148.2v47.2H119c39.2 0 68.4-18.9 82-47.2H55.4zm153.1-25.3H55.4v-26.6h153.2c.6 4.2.9 8.5.9 12.9v.6c-.1 4.4-.4 8.8-1 13.1zM119 41.6c39.4 0 68.7 19.4 82.2 48.1H55.4V41.6H119z"/><path fill="#2F3030" d="M216.8 219.4l39.2-23.9-39.2-65z"/><path fill="#828384" d="M216.8 130.5l-39.2 65 39.2 23.9z"/><path fill="#2F3030" d="M216.8 256l39.2-55.3-39.2 25.5z"/><path fill="#828384" d="M216.8 226.2l-39.2-25.5 39.2 55.3z"/><path fill="#131313" d="M216.8 171.6v47.8l39.2-23.9-39.2-23.9z"/><path fill="#343535" d="M216.8 171.6l-39.2 23.9 39.2 23.9z"/></svg>