<svg baseProfile="basic" xmlns="http://www.w3.org/2000/svg" viewBox="0 0 256 256"><path fill-rule="evenodd" clip-rule="evenodd" fill="#F4B731" d="M30.7 18.9H119c53.7 0 94.4 28.9 109.5 70.9H256v25.4h-21.7c.4 4 .6 8.1.6 12.3v.6c0 4.7-.3 9.3-.8 13.8H256v25.4h-28c-15.5 41.4-55.9 70-109 70H30.7v-70H0v-25.4h30.7v-26.6H0V89.7h30.7V18.9zm24.7 148.2v47.2H119c39.2 0 68.4-18.9 82-47.2H55.4zm153.1-25.3H55.4v-26.6h153.2c.6 4.2.9 8.5.9 12.9v.6c-.1 4.4-.4 8.8-1 13.1zM119 41.6c39.4 0 68.7 19.4 82.2 48.1H55.4V41.6H119z"/><path fill="#8247E5" d="M222.8 175.5c-2.5-1.5-5.7-1.5-8.5 0l-19.5 11.3-13.2 7.4-19.5 11.3c-2.5 1.5-5.7 1.5-8.5 0l-15.5-8.8c-2.5-1.5-4.2-4.2-4.2-7.1V172c0-2.9 1.5-5.6 4.2-7.1l15.2-8.6c2.5-1.5 5.7-1.5 8.5 0l15.2 8.6c2.5 1.5 4.2 4.2 4.2 7.1v11.3l13.2-7.6v-11.3c0-2.9-1.5-5.6-4.2-7.1L162 141.1c-2.5-1.5-5.7-1.5-8.5 0L125 157.3c-2.7 1.5-4.2 4.2-4.2 7.1V197c0 2.9 1.5 5.6 4.2 7.1l28.7 16.2c2.5 1.5 5.7 1.5 8.5 0l19.5-11 13.2-7.6 19.5-11c2.5-1.5 5.7-1.5 8.5 0l15.2 8.6c2.5 1.5 4.2 4.2 4.2 7.1v17.4c0 2.9-1.5 5.6-4.2 7.1l-15.2 8.8c-2.5 1.5-5.7 1.5-8.5 0l-15.2-8.6c-2.5-1.5-4.2-4.2-4.2-7.1v-11.3l-13.2 7.6v11.3c0 2.9 1.5 5.6 4.2 7.1l28.7 16.2c2.5 1.5 5.7 1.5 8.5 0l28.7-16.2c2.5-1.5 4.2-4.2 4.2-7.1V199c0-2.9-1.5-5.6-4.2-7.1l-29.1-16.4z"/></svg>