<svg baseProfile="basic" xmlns="http://www.w3.org/2000/svg" viewBox="0 0 256 256"><circle fill="#008CE3" cx="128" cy="128" r="128"/><g fill="#FFF"><path d="M150.6 69.4H97.9l-4.4 24.4 47.5.1c23.4 0 30.3 8.5 30.1 22.6-.1 7.2-3.2 19.5-4.6 23.4-3.6 10.6-11 22.6-38.8 22.6H81.5L77.3 187h52.6c18.5 0 26.4-2.2 34.8-6 18.5-8.6 29.5-26.8 33.9-50.7 6.5-35.6-1.7-60.9-48-60.9z"/><path d="M74.9 116.3c-13.8 0-15.8 9.1-17.1 14.6-1.7 7.2-2.3 10.1-2.3 10.1h54.1c13.8 0 15.8-9.1 17.1-14.6 1.7-7.2 2.3-10.1 2.3-10.1H74.9z"/></g></svg>