<svg baseProfile="basic" xmlns="http://www.w3.org/2000/svg" viewBox="0 0 159 256"><path fill="#96A6ED" d="M139.3 77.3L79.5 0 19.7 77.3 0 204.5 79.5 256l79.5-51.5-19.7-127.2zm11.8 109.2l-29-51.4 14.2-44.5 14.8 95.9zM83.3 13.8l49.9 64.5-15.5 48.8-34.4-60.8V13.8zM114.8 136l-20.4 64.2H64.6L44.2 136l35.3-62.6 35.3 62.6zM75.7 13.8v52.5l-34.4 60.9-15.5-48.9 49.9-64.5zM22.8 90.6L37 135.1 8 186.5l14.8-95.9zm16.9 53.3l17.9 56.3H8l31.7-56.3zM12 206.2h47.6L72 245.1l-60-38.9zm54.5 0h25.9l-13 40.8-12.9-40.8zm20.6 38.9l12.4-38.9H147l-59.9 38.9zm14.2-44.9l17.9-56.3 31.8 56.3h-49.7z"/></svg>