<svg xmlns="http://www.w3.org/2000/svg" xmlns:xlink="http://www.w3.org/1999/xlink" viewBox="0 0 256 256"><defs><clipPath id="a"><rect x="145.19" y="130.02" width="111.26" height="125.5" fill="none"/></clipPath></defs><path d="M41,130.37l80,46.45V0Z" fill="#d7d7d7"/><path d="M121,0V176.82l80-46.45Z" fill="#878787"/><path d="M121,94.67,201,130.37,121,176.81Z" fill="#fff"/><path d="M121,94.66h0V176.8l0,0L41,130.37Z" fill="#999"/><path d="M41,145.27,121,256V191.7Z" fill="#d7d7d7"/><path d="M121,191.7V256l80-110.72Z" fill="#878787"/><g clip-path="url(#a)"><path d="M149.42,168.17v49.2a8.79,8.79,0,0,0,4.4,7.61l42.61,24.6a8.79,8.79,0,0,0,8.79,0L247.84,225a8.79,8.79,0,0,0,4.4-7.61v-49.2a8.78,8.78,0,0,0-4.4-7.61L205.22,136a8.79,8.79,0,0,0-8.79,0l-42.62,24.61A8.77,8.77,0,0,0,149.42,168.17Z" fill="#213147"/><path d="M210.12,202.31,204.05,219a2.1,2.1,0,0,0,0,1.44l10.45,28.67,12.1-7-14.52-39.79A1,1,0,0,0,210.12,202.31Z" fill="#12aaff"/><path d="M222.31,174.28a1,1,0,0,0-2,0L214.28,191a2.07,2.07,0,0,0,0,1.43l17.13,47,12.09-7Z" fill="#12aaff"/><path d="M200.82,137.79a1.91,1.91,0,0,1,.87.23l46.12,26.62a1.75,1.75,0,0,1,.86,1.5v53.24a1.73,1.73,0,0,1-.86,1.49l-46.12,26.62a1.67,1.67,0,0,1-.87.23,1.73,1.73,0,0,1-.86-.23l-46.12-26.6a1.73,1.73,0,0,1-.87-1.49V166.15a1.73,1.73,0,0,1,.87-1.5L200,138A1.74,1.74,0,0,1,200.82,137.79Zm0-7.77a9.54,9.54,0,0,0-4.76,1.27L150,157.91a9.52,9.52,0,0,0-4.76,8.24v53.24a9.54,9.54,0,0,0,4.76,8.24l46.12,26.62a9.52,9.52,0,0,0,4.76,1.28,9.42,9.42,0,0,0,4.76-1.28l46.12-26.62a9.52,9.52,0,0,0,4.76-8.24V166.15a9.5,9.5,0,0,0-4.76-8.24l-46.13-26.62A9.51,9.51,0,0,0,200.82,130Z" fill="#9dcced"/><path d="M170.32,239.39l4.24-11.62,8.54,7.1-8,7.29Z" fill="#213147"/><path d="M196.94,162.34H185.25a2.07,2.07,0,0,0-2,1.37L158.22,232.4l12.1,7,27.6-75.65A1,1,0,0,0,196.94,162.34Z" fill="#fff"/><path d="M217.4,162.34H205.71a2.07,2.07,0,0,0-2,1.37l-28.62,78.44,12.09,7,31.16-85.39A1,1,0,0,0,217.4,162.34Z" fill="#fff"/></g></svg>