<svg xmlns="http://www.w3.org/2000/svg" viewBox="0 0 256 256"><path d="m48 130.37 79.98 46.45V0z" style="fill:#d7d7d7"/><path d="M127.98 0v176.82l79.98-46.45z" style="fill:#878787"/><path d="m128 94.67 79.95 35.7L128 176.8V94.66Z" style="fill:#fff"/><path d="M127.98 94.66h.02v82.14l-.02.02L48 130.38l79.98-35.71Z" style="fill:#999"/><path d="m48 145.27 79.98 110.72v-64.3z" style="fill:#d7d7d7"/><path d="M127.98 191.7V256L208 145.28z" style="fill:#878787"/><path d="M193.25 130.5c34.66 0 62.75 28.09 62.75 62.75S227.91 256 193.25 256s-62.75-28.09-62.75-62.75 28.09-62.75 62.75-62.75" style="fill-rule:evenodd"/><path d="m164.99 193.25.05 16.59 14.1 8.3v9.71l-22.35-13.11v-26.35l8.21 4.85Zm0-16.59v9.67l-8.21-4.86v-9.67l8.21-4.86 8.25 4.86zm20.03-4.86 8.21-4.86 8.25 4.86-8.25 4.86zm-14.1 34.6v-9.71l8.21 4.86v9.67l-8.21-4.81Zm14.1 15.22 8.21 4.86 8.25-4.86v9.67l-8.25 4.86-8.21-4.86zm28.24-49.82 8.21-4.86 8.25 4.86v9.67l-8.25 4.86v-9.67zm8.21 38.04.05-16.59 8.21-4.86v26.35l-22.35 13.11v-9.71l14.09-8.29Zm-5.89-3.44-8.21 4.81v-9.67l8.21-4.86v9.71Zm0-26.3.05 9.71-14.14 8.3v16.63l-8.21 4.81-8.21-4.81v-16.63l-14.14-8.3v-9.71l8.25-4.86 14.05 8.34 14.14-8.34 8.25 4.86zm-44.66-16.59 22.31-13.15 22.35 13.15-8.21 4.86-14.14-8.34-14.1 8.34z" style="fill:#f0b90b"/></svg>