<svg xmlns="http://www.w3.org/2000/svg" viewBox="0 0 256 256"><path d="m48 130.37 79.98 46.45V0z" style="fill:#d7d7d7"/><path d="M127.98 0v176.82l79.98-46.45z" style="fill:#878787"/><path d="m128 94.67 79.95 35.7L128 176.8V94.66Z" style="fill:#fff"/><path d="M127.98 94.66h.02v82.14l-.02.02L48 130.38l79.98-35.71Z" style="fill:#999"/><path d="m48 145.27 79.98 110.72v-64.3z" style="fill:#d7d7d7"/><path d="M127.98 191.7V256L208 145.28z" style="fill:#878787"/><circle cx="193.25" cy="193.25" r="62.75" style="fill:#fff"/><path d="M193.25 256c34.66 0 62.75-28.09 62.75-62.75s-28.09-62.75-62.75-62.75-62.75 28.09-62.75 62.75S158.59 256 193.25 256m-23.62-45.51q2.58.81 5.58.81c4.61 0 8.28-1.06 11.02-3.2 2.73-2.16 4.64-5.42 5.72-9.78.32-1.37.62-2.73.91-4.1.32-1.37.59-2.75.81-4.15.38-2.16.32-4.05-.19-5.68-.48-1.62-1.32-2.99-2.53-4.1-1.18-1.11-2.62-1.94-4.34-2.48-1.68-.57-3.53-.86-5.53-.86-4.64 0-8.33 1.11-11.06 3.34s-4.63 5.48-5.68 9.78c-.32 1.4-.64 2.78-.95 4.15-.29 1.37-.56 2.73-.81 4.1-.35 2.16-.29 4.05.19 5.68.51 1.62 1.35 2.97 2.53 4.05s2.62 1.89 4.34 2.43Zm10.73-7.59q-1.95 1.53-4.53 1.53c-2.58 0-3-.51-3.77-1.53q-1.14-1.53-.57-4.86c.25-1.4.51-2.72.76-3.96.29-1.24.6-2.53.95-3.86.54-2.23 1.45-3.85 2.72-4.86q1.95-1.53 4.53-1.53c2.58 0 2.97.51 3.77 1.53s.99 2.64.57 4.86a66 66 0 0 1-.76 3.86c-.25 1.24-.56 2.56-.91 3.96-.54 2.23-1.46 3.85-2.77 4.86Zm14.5 7.59c.19.22.45.33.76.33h6.49c.35 0 .65-.11.91-.33.29-.22.46-.51.52-.86l2.19-10.44h6.44c4.1 0 7.36-.87 9.78-2.62 2.45-1.75 4.07-4.45 4.86-8.11.38-1.84.37-3.45-.05-4.82q-.615-2.1-2.19-3.48c-1.05-.92-2.37-1.61-3.96-2.05-1.56-.45-3.31-.67-5.25-.67h-12.69c-.32 0-.62.11-.91.33s-.46.51-.52.86l-6.58 31c-.06.35 0 .64.19.86Zm17.6-17.89h-5.48l1.86-8.54h5.72c1.14 0 1.99.19 2.53.57.57.38.91.89 1 1.53.1.64.06 1.37-.1 2.19-.32 1.43-1 2.5-2.05 3.2q-1.53 1.05-3.48 1.05" style="fill:#ff0420;fill-rule:evenodd"/></svg>