<svg xmlns="http://www.w3.org/2000/svg" viewBox="0 0 256 256"><path d="m48 130.37 79.98 46.45V0z" style="fill:#d7d7d7"/><path d="M127.98 0v176.82l79.98-46.45z" style="fill:#878787"/><path d="m128 94.67 79.95 35.7L128 176.8V94.66Z" style="fill:#fff"/><path d="M127.98 94.66h.02v82.14l-.02.02L48 130.38l79.98-35.71Z" style="fill:#999"/><path d="m48 145.27 79.98 110.72v-64.3z" style="fill:#d7d7d7"/><path d="M127.98 191.7V256L208 145.28z" style="fill:#878787"/><circle cx="193.25" cy="193.25" r="62.75" style="fill:#fcfcfc"/><path d="m136.5 193.25 32.43-32.43v16.21h32.43l-32.43 24.32v24.32l-32.43-32.43Zm113.5 0-32.43 32.43v-16.21h-32.43l32.43-24.32v-24.32L250 193.26Z"/></svg>