<svg xmlns="http://www.w3.org/2000/svg" viewBox="0 0 256 256"><circle cx="128" cy="128" r="128" style="fill:#1969ee"/><path d="M119.66 33.84c4.68-2.45 11.81-2.45 16.49 0l47.77 25.02c2.82 1.48 4.37 3.68 4.65 5.95h.05v125.78c-.06 2.48-1.63 4.94-4.69 6.55l-47.77 25.02c-4.68 2.45-11.81 2.45-16.49 0L71.9 197.14c-3.05-1.6-4.52-4.08-4.59-6.55V64.81h.02c.21-2.3 1.69-4.44 4.57-5.95l47.77-25.02Zm61.43 101.14-44.95 23.54c-4.68 2.45-11.81 2.45-16.49 0L74.8 135.03v55.31l44.85 23.37c2.53 1.34 5.16 2.65 7.73 2.82l.51.02c2.68 0 5.28-1.34 7.91-2.62l45.27-23.78v-55.16ZM59.52 187.85c0 4.82.56 7.99 1.69 10.22.93 1.85 2.32 3.26 4.87 4.98l.15.1c.56.37 1.17.77 1.92 1.22l.88.54 2.71 1.62-3.89 6.38-3.04-1.82-.51-.31c-.88-.54-1.61-1-2.29-1.45-7.26-4.85-9.96-10.14-10.02-21.15v-.33h7.52Zm64.62-86.58c-.35.12-.67.26-.97.41L75.4 126.7c-.05.03-.1.05-.14.08l-.04.02.08.04.11.06 47.77 25.02c.3.16.62.29.97.41v-51.07Zm7.52 0v51.07c.35-.12.67-.26.97-.41l47.77-25.02c.05-.03.1-.05.14-.08l.04-.02-.07-.04-.11-.06-47.77-25.02c-.3-.16-.62-.29-.97-.41Zm49.43-27.54-42.86 22.45 42.86 22.45V73.74Zm-106.28.05v44.79l42.76-22.39-42.76-22.4Zm57.82-33.35c-2.48-1.3-6.98-1.3-9.46 0L75.4 65.45c-.05.03-.1.05-.14.08l-.04.02.08.04.11.06 47.77 25.02c2.48 1.3 6.98 1.3 9.46 0l47.77-25.02c.05-.03.1-.05.14-.08l.04-.02-.07-.04-.11-.06-47.77-25.02Zm55.52 2.74 3.04 1.82.51.31c.88.54 1.61 1 2.29 1.45 7.26 4.85 9.96 10.14 10.02 21.15v.34h-7.52c0-4.82-.56-7.99-1.69-10.22-.93-1.85-2.32-3.26-4.87-4.98l-.15-.1c-.56-.37-1.17-.76-1.92-1.22l-.88-.54-2.71-1.62 3.89-6.38Z" style="fill:#fff"/></svg>