<svg xmlns="http://www.w3.org/2000/svg" viewBox="0 0 256 256"><circle cx="128" cy="128" r="128" fill="#41e6af"/><path fill="#fff" fill-rule="evenodd" d="m98.184 127.484 51.716 51.727 32.646-32.645a14.767 14.767 0 0 1 20.854 20.855l-43.081 43.088a14.868 14.868 0 0 1-20.854 0l-62.155-62.17v36.952a14.767 14.767 0 1 1-29.533 0V69.628a14.767 14.767 0 0 1 29.533 0v36.953l62.15-62.155a14.863 14.863 0 0 1 20.854 0l43.113 43.081a14.767 14.767 0 0 1-20.854 20.855l-32.646-32.646Zm51.743-14.784a6.123 6.123 0 1 0 0-.008Z"/></svg>