<svg xmlns="http://www.w3.org/2000/svg" xmlns:xlink="http://www.w3.org/1999/xlink" viewBox="0 0 256 256"><defs><linearGradient id="b" x1="2513.43" x2="2508.4" y1="-1406.21" y2="-1411.24" gradientTransform="matrix(36 0 0 -36 -90265 -50586)" gradientUnits="userSpaceOnUse"><stop offset="0" stop-color="#ff2d55"/><stop offset="1" stop-color="#ffbc5b"/></linearGradient><linearGradient id="c" x1="2360.24" x2="2360.24" y1="-1522.41" y2="-1529.52" gradientTransform="matrix(11.25 0 0 -13.5 -26422 -20469.3)" gradientUnits="userSpaceOnUse"><stop offset="0" stop-color="#a524b3"/><stop offset="1" stop-color="#ff2d55"/></linearGradient><linearGradient xlink:href="#c" id="d" x1="2287.94" x2="2287.94" y1="-1593.91" y2="-1601.02" gradientTransform="matrix(8.25 0 0 -9.9 -18681.34 -15645.3)"/><style>.j{fill:#fff;fill-rule:evenodd}.q{fill:#2f3030}.r{fill:#ffc95b}.t{fill:#828384}</style></defs><g id="a"><circle cx="128" cy="128" r="128" style="fill:url(#b)"/><path d="M90.69 83.2v96h80l-80-96z" style="fill:url(#c);fill-rule:evenodd" transform="translate(1.44 11.7)"/><path d="M12.13 190.9h80v-96l-80 96z" class="j"/><path d="M51.2 230.4A127.478 127.478 0 0 0 128 256c28.8 0 55.42-9.54 76.8-25.6H51.2Z" style="fill:#ff2d55;fill-rule:evenodd"/><path d="M25.6 204.8c7.31 9.68 15.92 18.29 25.6 25.6h153.6c9.68-7.31 18.29-15.92 25.6-25.6H25.6Z" style="fill:#fc9965;fill-rule:evenodd"/><path d="M171.71 179.2H10.69c3.96 9.08 8.96 17.68 14.91 25.6h146.18v-25.6h-.06Z" style="fill:#ffbc5b;fill-rule:evenodd"/><path d="M171.71 134.4v70.4h58.69l-58.69-70.4z" style="fill:url(#d);fill-rule:evenodd" transform="translate(15.84 18.9)"/><path d="M128.93 223.7h58.62v-70.4l-58.62 70.4z" class="j"/><circle cx="171.71" cy="83.2" r="32" class="r"/><circle cx="90.69" cy="48" r="16" class="r"/></g><g id="g"><g id="h"><path d="M216.78 219.38 256 195.51l-39.22-65.01v88.88z" class="q"/><path d="m216.78 130.5-39.22 65.01 39.22 23.87V130.5z" class="t"/><path d="M216.78 256 256 200.68l-39.22 25.47V256z" class="q"/><path d="m216.78 226.15-39.22-25.47L216.78 256v-29.85z" class="t"/><path d="M216.78 171.63v47.75L256 195.51l-39.22-23.88z" style="fill:#131313"/><path d="m216.78 171.63-39.22 23.88 39.22 23.87v-47.75z" style="fill:#343535"/></g></g></svg>