<svg xmlns="http://www.w3.org/2000/svg" viewBox="0 0 256 256"><defs><mask id="a" width="84.898" height="194.093" x="0" y="24.432" maskUnits="userSpaceOnUse"><path fill="#fff" fill-rule="evenodd" d="M.152 24.435h84.746v194.09H.152V24.435z"/></mask></defs><g mask="url(#a)"><path fill="#efe812" d="M71.247 38.725c4.87-5.545 9.349-10.237 13.615-14.219-72.019-2.306-51.046 49.767-74.65 102.626-27.016 60.928 3.2 84.141 48.2 91.393A97.966 97.966 0 0 1 43.2 193.641C14.158 156.921 25.924 89.985 71.247 38.725"/></g><path fill="#ede70a" d="M244.542 103.635a205.73 205.73 0 0 1-36.365 60.893 174.5 174.5 0 0 1-44.186 38.285 119.3 119.3 0 0 1-65.191 18.52 256.707 256.707 0 0 1-40.24-2.808A82.251 82.251 0 0 0 85.466 239.6c65.124 31.5 69.211-26.98 138.1-56.662 38.675-16.672 38.818-49.234 20.937-79.307M163.991 42.849a85.539 85.539 0 0 1 26.874 9.527 149.9 149.9 0 0 1 53.677 51.259c11.73-33.059 6.256-59.009-19.374-63.7-28.224-5.155-50.264-6.825-71.45-21.613C127.626.192 104.733 6.093 84.9 24.542l4.3.178c27.514 1.635 53.819 7.109 74.65 18.058"/><path fill="#dec21c" d="M71.247 38.725c-45.323 51.26-57.089 118.2-27.9 154.916a111.477 111.477 0 0 1 6.291-99.533C74.2 53.158 123.5 35.384 163.991 42.849c-20.973-11.091-47.278-16.423-74.65-18.058l-4.3-.214a189.581 189.581 0 0 0-13.794 14.148"/><path fill="#e5cb22" d="M190.865 52.3a85.584 85.584 0 0 0-26.874-9.455c27.585 14.5 45.892 39.1 45.892 77.991a97.864 97.864 0 0 1-45.892 81.973 173.8 173.8 0 0 0 44.186-38.285 205.73 205.73 0 0 0 36.365-60.893A149.91 149.91 0 0 0 190.865 52.3"/><path fill="#cca727" d="M163.991 42.849C123.5 35.384 74.2 53.158 49.634 93.931a111.369 111.369 0 0 0-6.291 99.71 96.974 96.974 0 0 0 15.214 24.884 256.707 256.707 0 0 0 40.24 2.808 119.3 119.3 0 0 0 65.194-18.52 97.827 97.827 0 0 0 45.892-81.973c0-38.889-18.307-63.488-45.892-77.991m-4.55 141.479a67.326 67.326 0 0 1-92.85-19.978C46.471 133.317 56.424 93.255 86.6 71.927c33.77-24 77.067-14.539 92.85 19.977 15.392 33.628 11.162 72.482-20.013 92.424"/><path fill="#2f3030" d="M216.781 219.385 256 195.505 216.781 130.5v88.885z"/><path fill="#828384" d="m216.781 130.5-39.218 65.005 39.218 23.88V130.5z"/><path fill="#2f3030" d="M216.781 256 256 200.679l-39.219 25.472V256z"/><path fill="#828384" d="m216.781 226.151-39.218-25.472L216.781 256v-29.849z"/><path fill="#131313" d="M216.781 171.626v47.759L256 195.505l-39.219-23.879z"/><path fill="#343535" d="m216.781 171.626-39.218 23.879 39.218 23.88v-47.759z"/></svg>