<svg xmlns="http://www.w3.org/2000/svg" viewBox="0 0 256 256"><circle cx="128" cy="128" r="128" style="fill:#3d8130"/><path d="m71.1 216.15 2.13.4c-1.67-.52-3.63-1.09-5.47-1.67z" style="fill:none"/><path d="m184.1 175.98-.05-.05zM68.22 97.5l-6.62 12.89-6.85 13.52-4.83 12.66-3.22 13.46-2.01 14.73-1.21 12.72-1.38 8.34 1.38 6.5 2.36 5.58 4.37 7.71 10.13 6.33 7.48 2.93c1.84.58 3.8 1.15 5.47 1.67l8.86 1.61 12.66.58h10.47c1.21 0 11.8-.58 11.85-.63l13.46.23 13-1.61 5.64-2.36 3.86-4.6.17-6.1c-.23-.52-.98-2.47-1.21-3.22-.17-.52-2.76-3.57-5.12-6.21l-.06-.06c-1.04-1.5-2.7-4.09-2.7-4.95s1.04-3.39 1.27-3.86l.12-.23 5.41-1.55 3.57 2.59 3.22-1.78 3.62-3.62 6.33-4.66 5.75-3.28 4.55-.86 5.98 4.09-.4-.46 2.47-2.19 2.3-3.8v-3.97l-.46-1.15-2.93 2.36-5.24 1.5h-.12l-8.06-.17-11.68 1.21-3.68.4-2.82-.4-7.54-1.04-8.52-1.61-13.75-2.24h-.06l-13.18-5.47-11.57-6.67-7.08-4.78-.69-3.39.92-3.16 2.82-2.07 6.56 1.5 14.33 4.43c7.02 1.44 17.72 3.57 18.41 3.62.35 0 1.73.23 5.18.81 3.68.58 8.75 1.44 9.78 1.44 1.78 0 15.54.75 16.34.81.75 0 11.91-.23 13.12-.23.81 0 5.12-1.44 7.71-2.36l3.91-4.66 3.74-6.5c.23-1.9 0-3.8-.69-5.58-.92-2.42-2.65-4.49-4.83-5.87-1.15 2.19-2.65 3.57-4.37 4.2-.63.23-1.38.35-2.07.35-1.04 0-2.07-.23-2.93-.69l.58-1.04c1.27.63 2.7.75 4.09.29 1.55-.58 2.88-1.96 3.91-4.09-1.27.46-2.65.75-4.03.75-.86 0-1.73-.06-2.59-.29l.12-.58.12-.58c.06 0 4.49 1.09 7.83-1.5 2.36-1.78 3.68-5.01 3.91-9.44l-3.86 4.55-4.66 2.13c-2.07.52-8.98 2.24-9.61 2.24-.23 0-1.15-.12-3.39-.52-2.82-.46-7.02-1.09-8.11-1.09-1.96 0-4.72-2.13-5.01-2.36l-.35-.23 2.19-6.39 6.04-6.85 6.39-4.55h7.94l7.48.81 3.22 3.68 1.55 2.3v-6.21l-6.21-2.24c-.69-.12-6.85-.98-8.34-.98s-6.96.86-7.88.98l-8 5.18-.63-.98 8.17-5.29h.12c.29-.06 6.5-1.04 8.17-1.04s8.29.98 8.57 1.04l.12.06 6.73 2.47.63.35.06-.46-3.16-2.76-5.7-2.76-6.9-.58-7.94 1.38-3.16 1.38-.46-1.09 3.34-1.44 8.17-1.44 7.25.63.29.17-2.19-3.39-6.16-5.41.06-.06-23.94.69-6.67.86 3.39 4.89 1.73 3.05-.86 3.05-1.15-.35.75-2.59-1.5-2.59-3.62-5.24.23-.17c-4.49.58-9.26 1.15-9.55 1.15-.52 0-19.74 1.44-20.54 1.44-1.61-.12-3.22-.29-4.78-.63-.29-.17-13.12-4.83-13.58-5.12s-4.95-4.6-4.95-4.6l-8.75-2.7-7.65 9.44-7.94 11.97Zm93.39 26.41c1.15.52 2.19 1.15 3.28 1.78l6.56.75 3.74-.81.23 1.15-3.91.81-4.55-.52c1.96 1.44 3.74 3.05 5.35 4.89a27 27 0 0 1 3.05 4.26l-1.04.58c-1.04-1.73-2.24-3.39-3.68-4.83-1.9-1.96-4.03-3.74-6.33-5.18l-3.34-1.9.63-.98Zm-65.77-21.52 5.24-5.01 4.55-3.74 6.5-1.27 6.85-.23h7.31l6.04.23 12.26.23 3.86 2.36 4.72 4.32 2.7 3.34 1.27 6.79-1.15.23-1.21-6.5-2.47-3.11-4.55-4.14-3.45-2.13-9.61-.17 4.2 2.3c2.24 1.15 6.1 3.22 6.5 4.09.29.46 3.34 3.45 6.16 6.1l.06.06 4.32 5.58.63 4.6-1.15.17-.58-4.26-4.09-5.29c-1.44-1.32-5.93-5.58-6.33-6.39-.35-.46-3.34-2.19-5.98-3.57l-6.16-3.39-5.93-.17h-7.25l-6.79.17-6.04 1.15-4.32 3.51-4.89 4.72-.52 3.11 1.04.92 2.59-1.38 4.26-5.29 7.71-2.93 10.01-1.04 8.46.81 10.99 5.7 4.55 2.7 4.37 5.81 2.01 6.33 2.93 1.9v2.59l-2.7 2.47-4.83 2.01-2.07 1.73-2.19 3.57-1.09 1.78-.12.06c-1.44.75-3.97 2.07-4.66 2.07-.52.12-3.74 1.55-6.62 2.99l-.29.06c-.23.06-5.29 1.61-6.56 1.84l-.17-1.15c1.09-.17 5.87-1.61 6.33-1.78 2.88-1.38 6.44-3.05 7.08-3.05 1.38-.52 2.7-1.15 4.03-1.9l.52-.86 2.65-4.32.63-.52c-1.84-.17-4.26-.46-4.89-.81-.29-.12-2.01-.35-11.05-.35-2.24 0-7.54-1.21-8.29-1.44-.58-.17-5.98-1.78-6.04-1.78l-.12-.06-.12-.12c-.06-.06-5.06-4.83-8.75-6.96l.58-1.04c3.57 2.07 8.11 6.33 8.92 7.08.86.23 5.35 1.61 5.93 1.78.63.23 5.81 1.38 7.88 1.38 10.87 0 11.34.29 11.62.52.4.23 2.99.52 5.18.69l-.06.4.86-.75 4.83-2.01 2.13-1.96v-1.44l-1.5-.98.06.17-5.01 1.84-6.9.81c-.35 0-1.84.06-3.51.06-1.96 0-4.09-.06-4.72-.29-.92-.29-6.73-1.55-9.61-2.19h-.06l-.06-.06c-3.63-1.96-8.11-4.43-8.46-5.06-.29-.35-2.53-1.5-4.43-2.42h-.06l-6.39-3.74-.86.17-.12-.75-2.01-1.15-3.11 1.67-2.19-1.9.75-4.14Zm2.65 27.56.29 1.15-3.91.92-1.96.46-.12-.46-.17-.69zm2.47 5.47-.29 1.15c-1.32-.29-2.7-.23-4.03 0-2.19.4-5.41 1.67-8.52 5.24l-.86-.75c6.39-7.48 13.41-5.75 13.69-5.64Z" style="fill:#3d8130"/><path d="M108.84 106.3c.35-.06 8.52-1.04 9.55-1.04.4 0 1.55.12 3.05.23 2.01.17 5.41.46 5.93.4.81-.23 8.86-.92 9.78-1.04l4.78-.35-.98-.58-10.76-5.58-8.11-.81-9.78.98-7.25 2.76-3.68 4.6 2.36 1.38 5.12-.98ZM137.21 106.07c-3.57.35-9.03.86-9.61.98-.52.12-2.36 0-6.27-.35-1.32-.12-2.59-.23-2.93-.23-.81 0-7.02.75-9.38.98l-3.8.69 5.18 3.05c1.61.75 4.37 2.13 4.83 2.82.46.46 4.37 2.7 8 4.66.92.17 8.52 1.84 9.67 2.24.81.29 5.24.23 7.83.17l6.79-.81 4.09-1.55-.23-.12-2.07-6.56-4.09-5.47-2.42-1.44.06.58-5.64.35ZM190.38 105.61l-2.88-3.22-7.02-.81H173l-6.04 4.32-5.75 6.5-1.84 5.35c.92.69 2.76 1.84 3.97 1.84s5.12.63 8.29 1.15c1.5.23 2.99.46 3.22.46.52-.06 5.93-1.38 9.26-2.19l4.26-1.96 3.39-3.91-.29-1.84-10.47-4.26-13.41-.4.06-1.15 13.64.4 11.28 4.6.46 2.93v-3.74l-2.65-4.09ZM177.83 173.11l-3.91.75-5.52 3.16-6.21 4.6-1.73 1.73 3.91 2.76.29 2.19-2.65 2.65-.81-.81 2.24-2.24-.12-1.09-3.68-2.59-1.09 1.09-2.3 1.27-.63 3.11 3.22 2.82 4.66-.17c.86-.63 2.3-1.55 2.99-1.61.69-.4 1.38-.86 2.01-1.38 1.55-1.21 2.19-1.61 2.65-1.61 1.38-.69 2.7-1.44 3.97-2.3l.17-.12 5.64.63 1.96 1.96-.4.4c-1.21 1.32-2.59 3.05-2.65 3.45 0 .29-.06.58-.17.81l1.32-.75 6.21-4.43.69.98-6.33 4.49-2.93 1.61c-.12.17-.23.35-.29.4l-.23-.17-4.49 2.47-3.11 4.49-1.09 2.65 2.24 3.16 2.47 2.82 2.93.35 2.7-.58-.06-.58 2.99-4.72 5.64-5.47.81.86-5.58 5.41-2.7 4.2.17 3.16 2.88 1.96 3.8.4 2.13-.63-.4-.63.29-.35c.12-.17 3.22-3.68 3.86-4.26.46-.46 3.11-3.51 4.43-5.01l.86.75c-.17.17-3.86 4.49-4.49 5.06-.46.46-2.7 2.93-3.51 3.86l2.01 2.99h3.39l2.93-1.32 2.42-3.57 3.22-3.45.86.81-3.22 3.39-2.47 3.74-3.51 1.55h-4.26l-1.78-2.65-2.7.81-4.32-.4-3.57-2.47-.12-2.3-2.7.58-3.57-.46-2.7-3.11-4.03-2.42-4.2-4.66-1.04-7.25 1.15-.17.86 6.21 5.01-3.97 5.41-5.18 3.11-4.26-1.5-.17c-1.67 1.09-3.62 2.3-4.32 2.42-.69.4-1.38.86-2.01 1.38-1.61 1.21-2.24 1.61-2.65 1.61-.86.4-1.73.92-2.47 1.5l-.17.12-5.47.23-4.09-3.62.58-2.76-.4.23-3.68-2.65-4.32 1.27c-.46 1.04-.81 2.07-1.04 3.16.06.46 1.32 2.59 2.47 4.26 1.55 1.73 5.12 5.81 5.35 6.67.17.63.92 2.47 1.21 3.16l.06.12-.17 7.83 2.24 3.34c1.15.69 9.61 5.64 10.59 6.21.69.4 6.79 2.13 10.53 3.16l12.6 1.21 10.13-1.38 8.69-3.97 4.72-4.55-1.09-4.03-5.81-10.82-4.2-6.39-7.31-7.94-10.76-5.93-1.61-3.45-5.35-3.63Z" style="fill:#3d8130"/><path d="m186.98 149.8-.17.06c-1.15.4-7.02 2.47-8.29 2.47s-13 .17-13.12.23c-.17 0-14.56-.81-16.34-.81-1.15 0-5.81-.75-9.95-1.44-2.3-.4-4.66-.75-5.01-.75-.81 0-15.71-3.05-18.7-3.62h-.06l-14.33-4.43-5.98-1.32-2.07 1.55-.69 2.47.52 2.65 6.67 4.49 11.45 6.62 13 5.41 13.64 2.19 8.52 1.61 10.18 1.38 15.31-1.61h.06l8 .17 4.83-1.38 4.09-3.28 3.34-5.12.75-2.36-1.09-2.65c-4.83 4.37-5.35 4.55-5.64 4.6l-4.95 1.21-13.75.63h-.06l-14.38-.81-14.27-2.59-11.51.23h-.06l-11.97-3.05-10.59-3.68-5.64-3.45.63-.98 5.58 3.39 10.41 3.62 11.8 2.99 11.51-.23h.06l14.27 2.59 14.27.81 13.64-.58 4.78-1.21c.29-.12 1.9-1.38 5.29-4.49.46-.4.75-.69.86-.81l4.37-5.98 1.5-2.82c-.23-.98-.46-1.9-.58-2.88-.58-.92-1.21-1.73-1.96-2.53 0 .52 0 1.04-.12 1.55v.12l-3.97 6.85-4.09 4.95Z" style="fill:#983b1f"/><path d="m213.8 210.85-5.87-10.93-4.26-6.5-7.37-8.23-10.64-5.81-1.55-3.34-.29.17s.98 3.57 1.67 3.91 9.9 5.06 10.36 5.29 8.46 9.78 8.46 9.78l6.44 11.22 3.86 8.63s-4.95 5.06-5.24 5.12-9.84 4.72-10.13 4.72-9.55 1.04-10.07.92c-.52-.17-11.91-1.15-12.77-1.21-.92-.06-11.45-4.26-11.45-4.26l-9.09-5.47-2.59-4.03-3.62 4.09s-5.12 2.59-5.81 2.59-13.23 1.67-14.21 1.67h-25.26s-24.97-.46-26.07-.98c-.35-.17-2.36-.81-5.01-1.67l-2.13-.4-3.34-1.27a699 699 0 0 0-7.77-2.36l-10.3-6.67s-4.32-7.48-4.49-7.88-2.82-6.67-2.82-6.96-.92-5.29-.92-5.29l1.84-11.45.81-12.03 1.96-13.12s3.28-13.18 3.34-13.75c.06-.63 5.35-13.64 5.35-13.64l5.58-10.07 7.37-15.19L75.88 85l7.88-9.38.52.17-.92-.75-7.65 9.49-8.52 12.37-6.67 13-6.85 13.46-4.89 12.77-3.28 13.58-2.01 14.85-1.21 12.72-1.44 8.57 1.44 6.79 2.47 5.75 4.55 8.06 10.41 6.56 10.99 4.32 11.22 2.07 12.83.63h10.47c1.21 0 11.28-.58 11.91-.63l13.52.23h.06l13.18-1.61h.06l6.04-2.53 3.11-3.74 2.59 3.86.12.06c.12.06 9.72 5.64 10.7 6.27 1.04.63 9.84 3.05 10.87 3.28l12.89 1.21 10.36-1.44h.06l8.98-4.09.12-.06 5.35-5.18-1.32-4.83Z"/><path d="m75.87 85.01-8.11 11.45-7.37 15.19-5.58 10.07s-5.29 13-5.35 13.64c-.06.63-3.34 13.75-3.34 13.75l-1.96 13.12-.81 12.03-1.84 11.45s.92 5.01.92 5.29 2.65 6.56 2.82 6.96 4.49 7.88 4.49 7.88l10.3 6.67s3.68 1.09 7.77 2.36l-7.48-2.93-10.13-6.33-4.37-7.71-2.36-5.58-1.38-6.5 1.38-8.34 1.21-12.72 2.01-14.73 3.22-13.46 4.83-12.66 6.85-13.52 6.62-12.89 8.46-12.26 7.65-9.44-.52-.17-7.94 9.38ZM178.06 171.9l-4.55.86-5.75 3.28-6.33 4.66-3.62 3.62-3.22 1.78-3.57-2.59-5.41 1.55-.12.23c-.23.52-1.27 2.99-1.27 3.86s1.73 3.51 2.7 4.95l.06.06c2.36 2.65 4.95 5.7 5.12 6.21.17.75.98 2.7 1.21 3.22l-.17 6.1-3.86 4.6-5.64 2.36-13 1.61-13.46-.23c-.12 0-10.7.63-11.85.63H94.86l-12.66-.58-8.86-1.61c2.59.81 4.66 1.5 5.01 1.67 1.04.52 26.07.98 26.07.98h25.26c.98 0 13.58-1.67 14.21-1.67.69 0 5.81-2.59 5.81-2.59l3.62-4.09 2.59 4.03 9.09 5.47s10.53 4.14 11.45 4.26c.92.06 12.26 1.04 12.77 1.21.52.17 9.78-.92 10.07-.92s9.84-4.6 10.13-4.72c.29-.06 5.24-5.12 5.24-5.12l-3.86-8.63-6.44-11.22s-8-9.55-8.46-9.78-9.67-4.95-10.36-5.29c-.69-.35-1.67-3.91-1.67-3.91l.29-.17v-.06l-6.1-4.03Zm6.68 8.28 10.76 5.93 7.19 7.94 4.2 6.39 5.81 10.82 1.09 4.03-4.72 4.55-8.69 3.97-10.13 1.38-12.6-1.21c-3.74-1.04-9.84-2.76-10.53-3.16-.98-.58-9.44-5.52-10.59-6.21l-2.24-3.34.17-7.83v-.06c-.29-.69-1.04-2.53-1.21-3.16-.23-.86-3.8-4.95-5.35-6.67-1.15-1.73-2.47-3.86-2.47-4.26.23-1.09.58-2.13 1.04-3.16l4.32-1.27 3.68 2.65.4-.23-.58 2.76 4.09 3.62 5.47-.23.17-.12c.75-.58 1.61-1.09 2.47-1.5.46 0 1.04-.4 2.65-1.61.63-.52 1.32-.98 2.01-1.38.69-.06 2.7-1.32 4.32-2.42l1.5.17-3.11 4.26-5.41 5.18-5.01 3.97-.86-6.21-1.15.17 1.04 7.25 4.2 4.66 4.03 2.42 2.7 3.11 3.57.46 2.7-.58.12 2.3 3.57 2.47 4.32.4 2.7-.81 1.78 2.65h4.26l3.51-1.55 2.47-3.74 3.22-3.39-.86-.81-3.22 3.45-2.42 3.57-2.93 1.32h-3.39l-2.01-2.99c.81-.92 3.05-3.39 3.51-3.86.63-.63 4.32-4.89 4.49-5.06l-.86-.75c-1.32 1.55-3.97 4.55-4.43 5.01-.63.63-3.74 4.14-3.86 4.26l-.29.35.4.63-2.13.63-3.8-.4-2.88-1.96-.17-3.16 2.7-4.2 5.58-5.41-.81-.86-5.64 5.47-2.99 4.72.06.58-2.7.58-2.93-.35-2.47-2.82-2.24-3.16 1.09-2.65 3.11-4.49 4.49-2.47.23.17c.06-.12.17-.23.29-.4l2.93-1.61 6.33-4.49-.69-.98-6.21 4.43-1.32.75c.12-.23.17-.52.17-.81.06-.46 1.44-2.13 2.65-3.45l.4-.4-1.96-1.96-5.64-.63-.17.12c-1.27.86-2.59 1.67-3.97 2.3-.46 0-1.09.46-2.65 1.61-.63.52-1.32.98-2.01 1.38-.69.06-2.07.98-2.99 1.61l-4.66.17-3.22-2.82.63-3.11 2.3-1.27 1.09-1.09 3.68 2.59.12 1.09-2.24 2.24.81.81 2.65-2.65-.29-2.19-3.91-2.76 1.73-1.73 6.21-4.6 5.52-3.16 3.91-.75 5.29 3.62 1.73 3.39Zm-15.77 25.72-1.55-.92-3.45-3.8 5.29-4.14 5.47-5.29 3.57-4.95 2.01.23.86.86c-1.09 1.21-2.59 2.99-2.59 3.8-.17.69-.52 1.32-.92 1.84l-5.01 2.76-3.34 4.78-1.38 3.45zM183.07 88.64 186 92.5s1.44 2.24 1.96 2.42 5.29 2.93 5.29 2.93l1.96 2.19-.4 1.27-1.5-.46.23 7.42h.46v-6.67l1.32.75.35-2.82-3.74-3.28-4.03-1.96.17-.12-3.11-4.89-6.27-5.52-.69.81h.63l4.43 4.09ZM192.85 118.96s-2.13 4.26-2.36 4.37c-.23.17-2.13.98-2.13.98l.17 1.04c.86.63 1.73 1.32 2.47 2.07.12.17 1.38 2.7 2.42 4.6h1.04c-.98-2.88-2.93-5.35-5.52-6.9.12-.23.23-.52.35-.75.17-.12.4-.23.58-.4 2.82-2.13 4.26-5.81 4.43-10.99v-3.63l-.69-1.04.17 5.58-.92 5.06Z"/><path d="m184.1 90.14 2.19 3.39-.29-.17-7.25-.63-8.17 1.44-3.34 1.44.46 1.09 3.16-1.38 7.94-1.38 6.9.58 5.7 2.76 3.16 2.76-.06.46-.63-.35-6.73-2.47-.12-.06c-.29-.06-6.9-1.04-8.57-1.04s-7.88.98-8.17 1.04h-.12l-8.17 5.29.63.98 8-5.18c.92-.12 6.44-.98 7.88-.98s7.65.92 8.34.98l6.21 2.24v6.33l-1.55-2.3-3.22-3.68-7.48-.81h-7.94l-6.39 4.55-6.04 6.85-2.19 6.39.35.23c.29.23 3.05 2.36 5.01 2.36 1.09 0 5.35.69 8.11 1.09 2.24.35 3.16.52 3.39.52.63 0 7.54-1.73 9.61-2.24l4.66-2.13 3.86-4.55c-.23 4.43-1.55 7.65-3.91 9.44-3.39 2.59-7.83 1.5-7.83 1.5l-.12.58-.12.58c.86.17 1.73.29 2.59.29 1.38 0 2.76-.23 4.03-.75-1.04 2.13-2.36 3.51-3.91 4.09-1.32.46-2.82.35-4.09-.29l-.58 1.04c.92.46 1.96.69 2.93.69.69 0 1.38-.12 2.07-.35 1.73-.63 3.16-2.01 4.37-4.2 2.19 1.38 3.91 3.45 4.83 5.87h.17c-.98-1.9-2.3-4.43-2.42-4.6-.81-.75-1.61-1.44-2.47-2.07l-.17-1.04s1.9-.81 2.13-.98 2.36-4.37 2.36-4.37l.92-5.01-.17-5.58-.23-7.42 1.5.46.4-1.27-1.96-2.19s-4.78-2.82-5.29-2.93c-.52-.17-1.96-2.42-1.96-2.42l-2.93-3.86-4.49-4.03h-.63l-.06.06 5.87 5.35Zm8.98 23.3-.46-2.93-11.28-4.6-13.64-.4-.06 1.15 13.41.4 10.47 4.26.29 1.84-3.39 3.91-4.26 1.96c-3.34.81-8.75 2.13-9.26 2.19-.23 0-1.73-.23-3.22-.46-3.16-.52-7.08-1.15-8.29-1.15s-2.99-1.15-3.97-1.84l1.84-5.35 5.75-6.5 6.04-4.32h7.48l7.02.81 2.88 3.22 2.7 4.09v3.22c-.06.17-.06.35-.06.52ZM156.31 169.65l3.69-.4h-6.51zM189.05 169.48c-.17.29-3.51 5.7-3.51 5.7l-1.5.81.35.4 2.65-2.3 2.53-4.26v-.58h-.52c.06.12.06.17 0 .23"/><path d="M189.05 169.48c0-.06.06-.17.06-.23h-.63v.23l-2.3 3.8-2.47 2.19.4.46.06.06 1.5-.81c-.06 0 3.28-5.35 3.39-5.7ZM194.58 134.21l.52.75c-.12-.98-.29-1.96-.63-2.93h-1.04c.63 1.21 1.15 2.19 1.15 2.19Z"/><path d="M198.32 140.65c-.06.29-.75 2.59-.92 2.93-.17.4-5.58 7.83-5.58 7.83l1.27 2.59s.23 1.84.06 2.13-4.95 7.71-4.95 7.71l.75 2.07s.17 2.59.12 3.39h.52v-3.97l-.63-1.73.52-.4 3.51-5.41.92-2.93-1.38-3.39.17-.17 4.49-6.16 1.78-3.28-.06-.23c-.23-.92-.46-1.9-.58-2.88 0-.23 0-.86-2.99-4.03l-.23.23 1.78 2.53s1.5 2.88 1.44 3.16Z"/><path d="M193.43 132.02h-.17c.69 1.78.92 3.68.69 5.58l-3.8 6.5-3.91 4.66c-2.65.92-6.96 2.36-7.71 2.36-1.21 0-12.37.17-13.12.23-.86-.06-14.56-.81-16.34-.81-1.04 0-6.1-.81-9.78-1.44-3.39-.58-4.83-.81-5.18-.81-.75-.06-11.39-2.19-18.41-3.62l-14.33-4.43-6.56-1.5-2.82 2.07-.92 3.16.69 3.39 7.08 4.78 11.57 6.67 13.18 5.47h.06l13.75 2.24 8.52 1.61 7.54 1.04h6.56l11.68-1.21 8.06.17h.12l5.24-1.5 2.93-2.36.46 1.15v3.74h.63c.06-.81-.12-3.39-.12-3.39l-.75-2.07s4.78-7.42 4.95-7.71-.06-2.13-.06-2.13l-1.27-2.59s5.47-7.42 5.58-7.83c.17-.4.81-2.65.92-2.93.06-.29-1.44-3.16-1.44-3.16l-1.78-2.53-.52-.75c-.06.12-.58-.86-1.21-2.07Zm1.67 5.87c.06-.52.12-1.04.12-1.55.75.75 1.38 1.61 1.96 2.53.12.98.29 1.96.58 2.88l-1.5 2.82-4.37 5.98c-.12.12-.46.4-.86.81-3.39 3.11-4.95 4.32-5.29 4.49l-4.78 1.21-13.64.58-14.27-.81-14.27-2.59h-.06l-11.51.23-11.8-2.99-10.41-3.62-5.58-3.39-.63.98 5.64 3.45 10.59 3.68 11.97 3.05h.06l11.51-.23 14.27 2.59 14.38.81h.06l13.75-.63 4.95-1.21c.23-.06.81-.23 5.64-4.6l1.09 2.65-.75 2.36-3.34 5.12-4.09 3.28-4.83 1.38-8-.17h-.06l-15.31 1.61-10.18-1.38-8.52-1.61-13.64-2.19-13-5.41-11.45-6.62-6.67-4.49-.52-2.65.69-2.47 2.07-1.55 5.98 1.32 14.33 4.43h.06c2.99.63 17.84 3.62 18.7 3.62.29 0 2.7.4 5.01.75 4.14.69 8.8 1.44 9.95 1.44 1.78 0 16.17.81 16.34.81.12 0 11.91-.23 13.12-.23s7.13-2.07 8.29-2.47l.17-.06 4.14-4.95 3.97-6.85-.06-.12Z"/><path d="M96.64 136.57c1.32-.29 2.7-.29 4.03 0l.29-1.15c-.29-.06-7.31-1.84-13.69 5.64l.86.75c3.11-3.62 6.33-4.83 8.52-5.24ZM94.8 132.02l3.92-.92-.23-1.15-5.87 1.38.17.69z"/><path d="m92.9 132.48 1.9-.46h-2.01zM164.43 126.85c2.3 1.5 4.43 3.22 6.33 5.18h1.61a33 33 0 0 0-5.35-4.89l4.55.52 3.91-.81-.23-1.15-3.74.81-6.56-.75c-1.04-.69-2.13-1.27-3.28-1.78l-.52 1.04 3.28 1.84Z"/><path d="m174.38 136.86 1.04-.58c-.86-1.5-1.9-2.93-3.05-4.26h-1.61c1.38 1.5 2.59 3.11 3.62 4.83ZM100.38 106.76l2.01 1.15.12.75.86-.17 6.39 3.74h.06c1.9.92 4.14 2.07 4.43 2.42.4.58 4.83 3.05 8.46 5.06l.06.06h.06c2.93.63 8.69 1.9 9.61 2.19.69.23 2.82.29 4.72.29 1.67 0 3.22-.06 3.51-.06l6.9-.81 5.01-1.84-.06-.17 1.5.98v1.44l-2.13 1.96-4.83 2.01-.86.75.06-.4c-2.19-.17-4.78-.52-5.18-.69-.29-.17-.75-.52-11.62-.52-2.07 0-7.25-1.15-7.88-1.38-.58-.17-5.06-1.55-5.93-1.78-.75-.75-5.29-4.95-8.92-7.08l-.58 1.04c3.74 2.19 8.75 6.9 8.75 6.96l.12.12.12.06c.06 0 5.47 1.61 6.04 1.78.69.23 5.98 1.44 8.29 1.44 9.03 0 10.7.23 11.05.35.63.35 3.05.63 4.89.81l-.63.52-2.65 4.32h1.38l2.19-3.57 2.07-1.73 4.83-2.01 2.7-2.47v-2.59l-2.93-1.9-2.01-6.33-4.37-5.81-4.55-2.7-10.99-5.7-8.46-.81-10.01 1.04-7.71 2.93-4.26 5.29-2.59 1.38-1.04-.92.52-3.11 4.89-4.72 4.32-3.51 6.04-1.15 6.79-.17h7.25l5.93.17 6.16 3.39c2.65 1.38 5.7 3.11 5.98 3.57.4.81 4.89 5.06 6.33 6.39l4.09 5.29.58 4.26 1.15-.17-.63-4.6-4.32-5.58-.06-.06c-2.82-2.59-5.87-5.58-6.16-6.1-.4-.86-4.26-2.93-6.5-4.09l-4.2-2.3 9.61.17 3.45 2.13 4.55 4.14 2.47 3.11 1.21 6.5 1.15-.23-1.27-6.79-2.7-3.34-4.72-4.32-3.86-2.36-12.26-.23-6.04-.23h-7.31l-6.85.23-6.5 1.27-4.55 3.74-5.24 5.01-.69 4.14 2.19 1.9 3.22-1.73Zm44.89-.23 4.09 5.47 2.07 6.56.23.12-4.09 1.55-6.79.81c-2.59.06-7.02.12-7.83-.17-1.15-.4-8.75-2.01-9.67-2.24-3.63-1.96-7.6-4.2-8-4.66-.46-.63-3.22-2.01-4.83-2.82l-5.18-3.05 3.8-.69c2.36-.29 8.57-.98 9.38-.98.35 0 1.61.12 2.93.23 3.91.35 5.75.46 6.27.35.58-.12 6.04-.69 9.61-.98l5.64-.4-.06-.58 2.42 1.5Zm-40.28-5.17 7.25-2.76 9.78-.98 8.11.81 10.76 5.58.98.58-4.78.35c-.92.06-8.98.81-9.78 1.04-.52.12-3.86-.23-5.93-.4-1.5-.12-2.65-.23-3.05-.23-1.04 0-9.21.98-9.55 1.04l-5.18.98-2.36-1.38 3.74-4.6Z"/><path d="M141.58 132.89c-1.32.75-2.65 1.32-4.03 1.9-.63 0-4.2 1.67-7.08 3.05-.52.17-5.24 1.61-6.33 1.78l.17 1.15c1.21-.23 6.33-1.78 6.56-1.84l.06-.06c2.88-1.38 6.16-2.88 6.62-2.99.69-.06 3.22-1.32 4.66-2.07l.12-.06 1.09-1.78h-1.38zM147.11 85.76l-.75.52c.35-.06.69-.06 1.04-.12zM149.81 91.69l1.5 2.59-.75 2.59 1.15.35.86-3.05-1.73-3.05-3.39-4.89c-.35.06-.69.06-1.04.12l-.23.17 3.62 5.18Z"/><path d="m185.03 90.31 5.12-.52s12.77 3.8 13.29 4.32 6.96 3.34 6.96 3.34l3.8.35.52-3.45-2.82-4.03-8.11-5.98-9.26-4.49-5.81-2.01-2.07-29.35-4.89-7.31-7.31-5.98-9.44-4.66-9.78-.17-18.41 2.3-16.92 3.34-.98-2.88c-1.32-.35-2.65-.58-3.97-.75-.98 0-9.95 2.76-9.95 2.76l-5.47 2.88-1.15 3.34-7.83 4.32-6.33 7.94-3.63 7.65s-1.84 7.65-1.84 8.11.98 4.66 1.67 4.95S86.23 76 86.23 76l6.73 3.34 9.72 5.64 12.08 3.97s11.45-.81 12.6-.81 18.41-1.84 19.39-1.84 19.91-1.5 20.43-1.5 11.8-.17 11.8-.17l4.49 3.97 1.55 1.73Z" style="fill:#c82727"/><path d="m180.54 106.59 1.49 3.17.92 3.62-.46 2.3-1.95 5.01-6.22 1.03-10.01-1.78-1.21-3.51.46-3.16 1.04-5.01 2.59-2.88 1.67.92 11.04.29M134.97 106.13l1.84 3.51.17 4.26-.92 3.8-1.96 3.05-3.16.17-12.14-3.63-4.83-4.26.63-2.7 1.67-2.59 2.24-1.78 8.52.23c-.12-.06 7.6.58 7.94-.06M213.16 90.77l-4.72-4.14-6.79-4.55-11.16-4.09-1.55-.63-.46-9.61c-.58-4.72-1.38-11.85-1.38-12.43 0-.81-.4-6.67-.4-6.9v-.12l-3.34-6.04-5.58-5.75-8.57-4.89-7.13-2.01h-9.78l-9.61 1.21c-3.86.63-9.9 1.61-10.59 1.61-1.04 0-9.09 1.84-10.01 2.01l-2.82.75.46-.23-.92-1.84-2.99-1.15-4.37.4-7.02 1.73-5.29 3.39-1.09 2.82.75.29-2.93.75h-.12l-6.21 3.91-4.32 4.89-3.91 6.56-3.11 10.7v3.86l2.01 3.57 12.6 4.49 4.2 3.8 9.38 4.26 8.29 2.07 15.48-1.04L152.54 86l15.94-1.21 13.23.17 13.98 2.01 11.05 5.24.52-1.04-11.16-5.29-14.21-2.01-13.41-.23-16 1.21-22.38 2.42-15.25.98-7.94-1.96-9.15-4.2-4.26-3.86-12.43-4.43-1.61-2.88v-3.39l2.99-10.36 3.8-6.33 4.14-4.72 5.93-3.74 26.12-6.85c3.39-.75 9.09-2.01 9.78-2.01 1.04 0 9.78-1.44 10.76-1.61l9.44-1.21h9.55l6.73 1.96 8.34 4.78 5.35 5.52 3.11 5.7c.12 2.13.4 6.1.4 6.67 0 .81 1.27 11.39 1.44 12.54l.46 9.03-6.79-2.59-13.41-1.44-10.13-1.04-9.95.81-11.51 1.21-13.41 3.05-10.07 2.42-6.73.4-8.63-1.73 4.37 3.16 3.57 2.07 8.17 2.01 8 .23h.06l7.13-.81 10.07-1.61 9.84-1.61 11.05-.81 7.65-.4 9.21.58 12.49 1.61 16.11 3.05 2.82 1.84 4.49 3.91 1.27 2.93-.29 2.19-2.42.17-4.72-2.19-8.69-3.45-6.85-2.07-5.98.63.12 1.15 5.75-.58 6.5 1.96 8.63 3.39 5.01 2.3 3.62-.23.52-3.45-1.5-3.22ZM99.23 40.42l.86-2.19 4.78-3.05 6.73-1.61 4.09-.4 2.3.86.63 1.27zm89.71 41.08-.12.58zl-12.6-1.61-9.32-.63-7.71.4-11.11.81-9.95 1.61-10.07 1.61-7.02.81-7.77-.17-7.94-1.96-3.34-1.96h-.06l3.51.69 6.96-.4 10.18-2.42 13.29-2.99 11.45-1.21 9.84-.81 10.01.98 13.23 1.38 9.44 3.63 11.05 4.03 1.27.86-13.35-2.65Z"/><ellipse cx="130.3" cy="112.75" rx="3.63" ry="3.05" style="fill:#fff" transform="rotate(-16.56 130.348 112.788)"/><circle cx="121.79" cy="113.84" r="1.5" style="fill:#fff"/><circle cx="120.87" cy="109.18" r="1.5" style="fill:#fff"/><circle cx="169.6" cy="115.86" r="1.38" style="fill:#fff"/><circle cx="169.43" cy="110.5" r="1.5" style="fill:#fff"/><circle cx="177.66" cy="113.55" r="2.7" style="fill:#fff"/><path d="M216.78 219.38 256 195.51l-39.22-65.01z" style="fill:#2f3030"/><path d="m216.78 130.5-39.22 65.01 39.22 23.87z" style="fill:#828384"/><path d="M216.78 256 256 200.68l-39.22 25.47z" style="fill:#2f3030"/><path d="m216.78 226.15-39.22-25.47L216.78 256z" style="fill:#828384"/><path d="M216.78 171.63v47.75L256 195.51z" style="fill:#131313"/><path d="m216.78 171.63-39.22 23.88 39.22 23.87z" style="fill:#343535"/></svg>