<svg xmlns="http://www.w3.org/2000/svg" viewBox="0 0 256 256"><path d="M128 0c70.69 0 128 57.31 128 128s-57.31 128-128 128S0 198.69 0 128 57.31 0 128 0Z" style="fill:#141416;stroke-width:0"/><path d="M150.86 155.17c-42.33 12.7-77.35 31.23-99.27 52.93l-.97.96c5.83 5.51 12.22 10.44 19.13 14.63l1.49-1.81c5.99-7.3 12.4-14.36 19.08-21.01 17.94-17.85 38.46-33.31 60.56-45.72l-.02.02ZM16 136.35c1.69 22.65 10.11 43.41 23.32 60.3l.61-.61c13.57-13.37 31.24-25.54 52.55-36.13 18.68-9.3 40.13-17.27 63.24-23.56H16ZM102.15 43.28c37.88 37.7 85.54 62.63 137.83 72.08-6.3-55.89-53.92-99.37-111.79-99.37-15.28 0-29.84 3.05-43.14 8.53 5.4 6.5 11.16 12.81 17.1 18.75ZM51.58 47.9c21.92 21.73 56.94 40.23 99.27 52.95-22.1-12.43-42.63-27.87-60.56-45.72a282.065 282.065 0 0 1-19.08-21.01l-1.49-1.81c-6.91 4.19-13.3 9.12-19.11 14.63l.97.96ZM102.15 212.71a264.09 264.09 0 0 0-17.1 18.75c13.28 5.49 27.86 8.53 43.14 8.53 57.86 0 105.49-43.48 111.81-99.39-52.28 9.45-99.95 34.38-137.83 72.08l-.02.02ZM92.48 96.08C71.17 85.48 53.5 73.32 39.93 59.95l-.61-.6C26.11 76.24 17.69 97 16 119.65h139.69c-23.11-6.29-44.54-14.27-63.24-23.59l.02.02Z" style="fill:#f5f5f5;stroke-width:0"/></svg>