<svg baseProfile="basic" xmlns="http://www.w3.org/2000/svg" viewBox="0 0 256 256"><path fill="#F4A817" d="M80.4 105.2c1.6.1 3.4-.1 5.2-.2 1.9-.1 3.8-.5 5.6-1.2 1.1-.4 2.1-1.1 2.6-2.2.8-2.1 1-4.4.4-6.6-1-3.4-3.5-5.7-6.2-7.8-2.3-1.8-5-2.6-7.9-2.1-5 .8-10.1 5.3-10.7 10.5-.3 2.3-.4 4.5.9 6.5.9 1.4 1.8 2.6 3.6 2.7 2.1.2 4.2.4 6.5.4zm94.4 0c1.1.1 2.9-.1 4.7-.3 1.6-.1 3.1-.5 4-2 1.4-2.1 1.9-4.4 1.6-6.9-.6-4.3-3.1-7.3-6.8-9.5-2.9-1.7-6-2.2-9.3-1.1-1.9.7-3.4 2-4.9 3.3-2.5 2.4-4.5 5.1-4.8 8.8-.3 3.4 1.1 5.4 4.3 6.3 3.5 1.2 7 1.4 11.2 1.4zm17.2 14.6c0-2.1 0-4.2-.6-6.3-.8-2.6-.6-2.6-3.1-2.4-3.5.3-6.5 1.8-9.6 3.3-4.3 2.2-8.4 4.7-12.5 7.4-3.3 2.2-6.6 4.2-9.5 6.9-2.2 2.2-4.2 4.5-4.7 7.8-.2 1 .2 1.6 1.3 1.9 1 .2 2 .5 3.1.4 4 0 7.9-.7 11.8-1.7 5-1.2 9.8-2.9 14.4-5.2 3-1.6 5.9-3.4 8.2-5.9.6-.7 1.1-1.4 1-2.3 0-1.4.1-2.6.2-3.9zm-127.3-.3c0 .9.2 2.4.2 4 0 1.4.7 2.4 1.6 3.3 3.9 3.8 8.7 6 13.7 7.9 3.2 1.2 6.6 2.2 10 2.9 3.4.7 6.8 1.3 10.3 1.4 1.2 0 2.5-.1 3.7-.5 1-.3 1.3-.8 1.2-1.8-.1-.9-.4-1.7-.8-2.5-1.6-3.1-4-5.5-6.8-7.4-7.2-5-14.5-9.8-22.6-13.3-2.5-1.1-5-1.9-7.7-1.9-.9 0-1.3.4-1.7 1.2-.8 1.8-.9 3.9-1.1 6.7zM39.4 16.1c-.6-.1-.7.1-1.2 1.3-2 4.4-2.5 9.1-2.8 13.8-.1 2.9.1 5.9.4 8.8.2 2 .4 4 .7 6 .3 2.2.7 4.4 1.2 6.7.6 2.9 1.2 5.8 1.9 8.7.9 3.6 1.9 7.2 2.9 10.7.9 3 1.8 5.9 2.7 8.8.1.2.1.5.4.5.2 0 .3-.2.4-.4 2-3.1 4-6.3 6.2-9.3C55 68 57.9 64.4 61.1 61c2.6-2.7 5.3-5.4 8.2-7.8 2.7-2.2 5.4-4.4 8.3-6.4.5-.4.5-.6.1-1.1-1.9-2.1-3.8-4.2-5.8-6.2-3.4-3.4-6.8-6.7-10.5-9.8-2.7-2.2-5.3-4.4-8.2-6.4-3-2.1-6.1-3.9-9.3-5.5-1.4-.6-3-1.3-4.5-1.7zm146.2 38.3c.5.8 1.3 1.2 1.9 1.8 2.8 2.8 5.6 5.5 8.2 8.6 2 2.4 4 4.9 5.9 7.4 2 2.7 3.8 5.4 5.6 8.2.3.4.3 1.1.9 1.1.1 0 .4-.8.5-1.2 1.1-3.7 2.3-7.3 3.3-10.9 1.2-4.2 2.3-8.3 3.2-12.5 1-4.6 1.9-9.3 2.4-14 .4-3.1.6-6.3.7-9.4.1-2.8-.2-5.6-.5-8.4-.1-.2-.2-.4-.2-.5-.3-2.6-1.1-5.1-2.2-7.5-.5-1.2-.7-1.2-1.9-.7-4.3 1.7-8.4 3.9-12.2 6.5-6 4.1-11.4 8.9-16.6 13.9-3 2.9-5.9 6-8.7 9.1-.4.5-.5.7.1 1.2 2.3 1.7 4.6 3.4 6.9 5.2.8.6 1.6 1.5 2.7 2.1zm-1.4-31.9c2.7-2.6 5.2-5.2 8-7.6 5.1-4.4 10.5-8.2 16.7-11 4-1.8 8.1-3.1 12.6-3.4.6 0 1 .1 1.4.7 1.6 2.6 2.6 5.4 3.4 8.4 1.6 6 1.9 12.2 1.6 18.4-.2 5.1-.7 10.1-1.4 15.1-.6 4-1.3 7.9-2 11.9-.3 1.5-.7 3-.9 4.5l-.3.9c-1.1 5.1-2.4 10.2-3.7 15.3-1.6 6-3.2 11.9-5.2 17.8-.6 1.7-.2 3 .5 4.5 1.9 4.2 4.3 8.2 6 12.6 1.2 3.1 2.3 6.2 3.2 9.4 1.6 5.2 2.7 10.5 3.6 15.8.5 3.3.9 6.6 1.2 9.9.3 2.9.4 5.7.5 8.6 0 1.1.5 2.2.1 3.3-1.5-.2-3-.5-4.4-.7-4.9-.5-9.7-.7-14.6-.3-5.7.6-11.1 1.9-16.4 4-6.8 2.8-12.8 6.9-18.2 12l-4.3 4.3c-.6-1.7-1.1-3.3-1.7-5-1.6-4.7-3.9-9-6.1-13.4-.6-1.3-1.4-2.6-2.4-3.7-3.4-3.9-7.3-7.4-11.7-10.1-6.8-4.2-14.4-6-22.3-6.1-4.1 0-8.2.8-12.1 2.1-7.8 2.4-14.1 7.1-19.4 13.2-1.9 2.2-3.2 4.8-4.7 7.3-2 3.4-3.9 6.8-5.4 10.4-.7 1.7-1.5 3.5-2.3 5.3-.4-.4-.7-.7-1-1.1-9.2-10.2-20.2-17.1-33.9-19.2-5.1-.8-10.2-.8-15.4-.4-2.5.2-5.1.6-7.6 1.1 0-2.9.3-5.7.5-8.6.3-3.8.8-7.5 1.5-11.2.5-3.1 1.2-6.2 2-9.3 1.2-5 2.6-9.9 4.3-14.7.3-.9.8-1.8 0-2.7 0 0 0-.2.1-.3.6.7.8.6 1.1-.2 1.7-4.7 3.7-9.2 5.8-13.8.2-.5.4-.9.2-1.4-1.9-4.8-3.5-9.6-4.9-14.6-1.2-3.7-2.2-7.5-3-11.3-.6-2.8-1.2-5.5-1.8-8.3-.1-2.3-.7-4.5-1-6.8-.5-3.5-1-7-1.4-10.5-.4-3.6-.6-7.2-.8-10.9-.2-3.5-.2-7.1-.1-10.6.2-4.4.5-8.7 1.6-13 .6-2.3 1.4-4.6 2.7-6.6C33.9.2 35.1-.3 37.8.1c4.8.7 9 2.8 13 5.4 5.4 3.4 10.1 7.6 14.6 12.1l5.4 5.4c.1.2.2.3.3.5 2.4 2.6 4.8 5.1 7.1 7.8 3.3 3.7 6.6 7.5 9.8 11.2.7.8 1.2.9 2.1.5 5.7-2.3 11.6-4 17.6-5.1 5.2-1 10.5-1.3 15.8-1.5 7.6-.3 15.1.1 22.6 1.3 6.7 1.1 13.3 2.8 19.6 5.2 1.4.5 1.4.6 2.4-.7 2.8-4 5.8-7.8 8.9-11.5 2.3-2.8 4.8-5.5 7.2-8.2z"/><path fill="#F00500" d="M229.5 157.5c.4-1.1 0-2.2-.1-3.3-.1-2.9-.3-5.7-.5-8.6a167 167 0 00-1.2-9.9c-.9-5.4-2-10.6-3.6-15.8-1-3.2-2.1-6.3-3.2-9.4-1.6-4.4-4.1-8.4-6-12.6-.7-1.5-1-2.8-.5-4.5 1.9-5.9 3.6-11.8 5.2-17.8 1.3-5.1 2.6-10.2 3.7-15.3l.3-.9c3 4.3 5.6 8.9 8.1 13.6 3.1 6.1 5.7 12.4 7.8 18.9 1.8 5.6 3.2 11.3 4.2 17.1 1.5 8.3 2.1 16.7 2 25.1-.1 6.4-.6 12.8-1.7 19.1-2.7 15.9-8 30.9-16.3 44.8-8.4 14.1-19.2 26.1-32.5 35.9-7.3 5.4-15.2 9.9-23.6 13.4-4.9 2.1-9.9 3.8-15.1 5.2-5.6 1.5-11.3 2.5-17 3.1-7.1.7-14.1.8-21.2.2-5.9-.5-11.7-1.5-17.4-3-7.9-2-15.4-4.7-22.6-8.4-17.3-8.6-31.5-20.8-42.9-36.3-6-8.2-10.9-16.9-14.8-26.3-2.2-5.4-4.1-10.8-5.6-16.5-1.5-5.8-2.6-11.7-3.4-17.7-1.1-8.8-1.2-17.5-.5-26.3.5-7.1 1.7-14.2 3.4-21.1 3.5-13.9 9.1-26.9 17-39 0-.1.1-.1.1-.1.6 2.8 1.2 5.5 1.8 8.3.6 3.6 1.6 7.4 2.7 11.1 1.4 4.9 3 9.8 4.9 14.6.2.5 0 .9-.2 1.4-2.1 4.5-4.1 9.1-5.8 13.8-.3.8-.6.9-1.1.2 0 .2-.1.3-.1.3.9.9.4 1.8 0 2.7-1.7 4.8-3.1 9.7-4.3 14.7-.7 3.1-1.4 6.2-2 9.3-.6 3.7-1.2 7.4-1.5 11.2-.2 2.9-.5 5.7-.5 8.6-.2 3.6.1 7.1 1 10.5 1.4 5.1 3.6 9.8 6.4 14.3 5.6 9 12.8 16.6 20.8 23.5 11.1 9.6 23.3 17.4 36.6 23.6 2.6 1.2 5.2 2.4 7.9 3.4l6 2.1c1.3.4 2.5.9 3.8 1.3 4.7 1.5 9.5 2.4 14.4 2.9 5.6.5 11.1.2 16.7-.7 5-.8 9.8-2 14.6-3.6 4.9-1.6 9.7-3.5 14.4-5.7 6.6-3.1 13-6.6 19.1-10.6 5.8-3.8 11.2-8 16.3-12.7 2.2-2 4.3-4 6.2-6.3.2 0 .4-.2.4-.4h.1v-.1c.1-.1.2-.2.3-.2 3.5-3.9 6.7-8 9.4-12.5 1.5-2.5 3.1-5 4.3-7.6 2.3-4.8 3.8-9.9 4.6-15.1.6-2 .8-4 .7-5.9zM184.2 22.5c-2.4 2.7-4.9 5.4-7.2 8.2-3.1 3.7-6.1 7.5-8.9 11.5-.9 1.3-.9 1.3-2.4.7-6.4-2.4-12.9-4.1-19.6-5.2-7.5-1.3-15-1.6-22.6-1.3-5.3.2-10.6.5-15.8 1.5-6 1.1-11.9 2.8-17.6 5.1-.9.4-1.4.2-2.1-.5-3.2-3.8-6.5-7.5-9.8-11.2-2.3-2.6-4.7-5.2-7.1-7.8-.1-.1-.2-.3-.3-.5 6.9-4.1 14.2-7.4 21.8-9.9 6.4-2.1 12.9-3.6 19.5-4.6 8.5-1.2 17-1.4 25.5-.7 5.9.5 11.6 1.5 17.4 2.9 10.1 2.5 19.6 6.4 28.7 11.5.2 0 .3.2.5.3z"/><path fill="#FFFEFE" d="M206 202.6zm.6-.6zm.9-.8zm-1.7 1.7s-.1 0 0 0c-.2 0-.2.1 0 0-.1.1-.1.1 0 0 0 .1 0 .1 0 0zm-63.2 34h-.9c.3.2.6.1.9 0zm-2.9.4c.7.2 1.1 0 1.7-.2-.6-.2-1.1.1-1.7.2zm-10.1-36.5h-8.1c-1.6 0-1.6 0-1.5 1.6 0 .4.2.6.5.8.8.5 1.7.8 2.6 1.2.6.3.9.2 1.2-.5.5-1.4.5-1.4 2-1.3.5 0 .8.3 1 .6.5.8 1 1.7 1.5 2.5.8 1.3 2.1 1.4 3.1.2.4-.5.9-1 1.3-1.5 1.4-1.7 1.4-1.7 3.1-.2.2.2.4.5.8.4 1.4-.3 2.4-1.7 2.5-3 0-.7-.3-.8-.9-.8h-9.1zm27.8-8.3h-8.1c-.4 0-.6.2-.7.5-.3.7-.8.9-1.5.8-2.1-.1-4.2 0-6.3 0-1.1 0-2.4.3-3.2-.2-.8-.5-1.3-1.7-1.8-2.7-.4-.7-.8-1-1.5-.9-.5.1-.7-.1-.7-.6v-7.2c0-.4.1-.6.5-.7 1.9-.6 3.5-1.6 5.1-2.8 3-2.3 5.2-5.2 5.9-9.1.5-2.6.2-5.3.3-7.9.1-3.2-3.1-6.5-6.3-6.5h-17.7c-3.6 0-6 2.4-6 6 0 1.7.1 3.4 0 5.1-.2 3.5 1.2 6.2 3.5 8.6 2.8 2.9 6.3 4.8 9.9 6.4.4.2.7.2.7.7v7.3c0 .4-.1.7-.5.6-1-.2-1.3.4-1.7 1.1-.4.8-.9 1.5-1.4 2.3-.2.4-.4.5-.8.5-3.8 0-7.5 0-11.3-.2-.3 0-.6 0-.6-.4 0-.6-.4-.7-.9-.7h-7.9c-.2 0-.5-.1-.5.2 0 .3-.1.6.2.9.5.4.9.9 1.4 1.3.6.5.9 1.1.9 1.9.1 1.1.3 2.2.5 3.3.2.9.5 1.2 1.4.9.6-.2 1.3-.3 1.4.7.1 1.3.6 2.6 1 3.9.6 1.7 1.2 3.4 2.3 4.8 1.2-1.3 1.4-2.7 1.3-4.4-.1-3 0-6 0-9 .4 0 .9.1 1.4.2 4 .8 8 1.1 12.1 1.3 6.5.2 13-.3 19.5-1.4.7-.1.8 0 .8.7-.1 3.1-.1 6.1-.1 9.2 0 1.4 1 2.3 1.6 3.5 1-2.7 2-5.3 3-7.8.6-1.5.6-1.5 2.1-1.5.4 0 .8 0 .9-.5.4-2.8 1.1-5.4 1.8-8.2zm51.8 7.1l.2-.2s-.1 0-.1-.1c-.1.1-.1.2-.1.3-.1 0-.1.1-.2.2-.3 0-.4.1-.4.4-.1 0-.2 0-.2.1 0 0 0 .1.1.1l.2-.2c.2-.1.3-.2.4-.4-.1-.1 0-.1.1-.2zm-1.2 1.2c.1 0 .2 0 .1-.2 0 .1-.1.1-.1.2-.1 0-.1 0-.1.1l.1-.1zm-.9.9l.1-.1c-.1-.1-.1 0-.1.1-.1 0-.1 0-.1.1l.1-.1zm2.9-2.4c-1.9 2.3-4.1 4.3-6.2 6.3-5.1 4.7-10.6 8.9-16.3 12.7-6.1 4-12.5 7.6-19.1 10.6-4.7 2.2-9.5 4.1-14.4 5.7-4.8 1.5-9.6 2.7-14.6 3.6-5.5.9-11.1 1.3-16.7.7-4.9-.5-9.7-1.5-14.4-2.9-1.3-.4-2.5-.8-3.8-1.3l-6-2.1c-2.7-1-5.3-2.2-7.9-3.4-13.3-6.1-25.6-14-36.6-23.6-8-6.9-15.2-14.5-20.8-23.5-2.8-4.5-5-9.2-6.4-14.3-.9-3.5-1.3-7-1-10.5 2.5-.4 5-.9 7.6-1.1 5.1-.4 10.3-.4 15.4.4 13.8 2.1 24.7 9.1 33.9 19.2.3.3.6.7 1 1.1.8-1.8 1.5-3.6 2.3-5.3 1.5-3.6 3.4-7 5.4-10.4 1.5-2.5 2.8-5.1 4.7-7.3 5.3-6.1 11.6-10.7 19.4-13.2 3.9-1.2 8-2.1 12.1-2.1 8 0 15.5 1.9 22.3 6.1 4.4 2.7 8.3 6.2 11.7 10.1 1 1.1 1.8 2.3 2.4 3.7 2.1 4.4 4.5 8.7 6.1 13.4.5 1.6 1.1 3.3 1.7 5l4.3-4.3c5.3-5.1 11.4-9.1 18.2-12 5.2-2.2 10.7-3.5 16.4-4 4.9-.5 9.8-.3 14.6.3 1.5.2 3 .4 4.4.7.1 1.9-.1 3.9-.4 5.8-.8 5.3-2.4 10.3-4.6 15.1-1.2 2.6-2.8 5.1-4.3 7.6-2.7 4.5-5.9 8.6-9.4 12.5-.1.1-.2.2-.3.2-.2-.4.4-.6.3-1.1-.4.4-.8.6-.9 1.1-.1 0-.3.1-.3.1-.2.3 0 .3.2.4z"/><path fill="#F28F1F" d="M39.4 16.1c1.6.5 3.1 1.1 4.6 1.9 3.2 1.6 6.3 3.5 9.3 5.5 2.8 2 5.5 4.2 8.2 6.4 3.7 3.1 7.1 6.4 10.5 9.8 2 2 3.9 4.1 5.8 6.2.4.4.4.7-.1 1.1-2.9 2-5.7 4.1-8.3 6.4-2.9 2.4-5.6 5.1-8.2 7.8-3.2 3.3-6.1 7-8.9 10.7-2.3 2.8-4.3 6-6.3 9.1-.1.2-.2.4-.4.4-.3 0-.4-.2-.4-.5-.9-2.9-1.9-5.9-2.7-8.8-1-3.6-2-7.1-2.9-10.7-.7-2.9-1.4-5.8-1.9-8.7-.4-2.2-.8-4.4-1.2-6.7-.3-2-.5-4-.7-6-.3-2.9-.5-5.8-.4-8.8.2-4.7.8-9.4 2.8-13.8.4-1.3.6-1.4 1.2-1.3z"/><path fill="#F28B20" d="M217.6 25c.3 2.8.7 5.6.5 8.4-.1 3.1-.3 6.3-.7 9.4-.5 4.7-1.4 9.4-2.4 14-.9 4.2-2 8.4-3.2 12.5-1 3.7-2.2 7.3-3.3 10.9-.1.4-.4 1.2-.5 1.2-.5 0-.6-.7-.9-1.1-1.8-2.8-3.6-5.5-5.6-8.2-1.9-2.5-3.8-5-5.9-7.4-2.6-3-5.5-5.7-8.2-8.6-.6-.6-1.5-1-1.9-1.8.2-.2.4-.4.5-.7 1.2-2.6 2.6-5 4-7.4 2.2-3.7 4.6-7.2 7.5-10.3 3-3.3 6.4-6.2 10.4-8.2 3.2-1.5 6.3-2.6 9.7-2.7z"/><path fill="#1F1712" d="M64.7 119.5c.2-2.7.2-4.8 1.1-6.8.3-.8.7-1.2 1.7-1.2 2.8 0 5.3.8 7.7 1.9 8.1 3.5 15.4 8.3 22.6 13.3 2.8 1.9 5.2 4.3 6.7 7.4.4.8.7 1.6.8 2.5.2 1-.2 1.5-1.2 1.8-1.2.4-2.4.5-3.7.5-3.5-.1-6.9-.6-10.3-1.4-3.4-.7-6.7-1.7-10-2.9-5-1.9-9.8-4.1-13.7-7.9-.9-.9-1.6-1.9-1.6-3.3.2-1.5 0-3-.1-3.9z"/><path fill="#1F1713" d="M192 119.8c-.1 1.3-.2 2.6-.2 3.8 0 1-.4 1.7-1 2.3-2.3 2.6-5.2 4.4-8.2 5.9-4.6 2.4-9.4 4-14.4 5.2-3.9.9-7.8 1.7-11.8 1.7-1.1 0-2.1-.2-3.1-.4-1.1-.3-1.4-.9-1.3-1.9.5-3.2 2.5-5.6 4.7-7.8 2.8-2.8 6.2-4.8 9.5-6.9 4-2.7 8.1-5.2 12.5-7.4 3-1.5 6.1-3 9.6-3.3 2.5-.2 2.3-.2 3.1 2.4.6 2.1.5 4.3.6 6.4z"/><path fill="#F2991D" d="M217.6 25c-3.4.1-6.5 1.2-9.6 2.7-4 2-7.4 4.9-10.4 8.2-2.9 3.2-5.3 6.7-7.5 10.3-1.5 2.4-2.8 4.9-4 7.4-.1.3-.3.5-.5.7-1.1-.5-1.9-1.5-2.8-2.2-2.2-1.8-4.5-3.5-6.9-5.2-.6-.5-.5-.7-.1-1.2 2.8-3.1 5.7-6.2 8.7-9.1 5.2-5 10.6-9.8 16.6-13.9 3.8-2.6 7.9-4.8 12.2-6.5 1.2-.5 1.4-.5 1.9.7 1.1 2.4 1.9 4.8 2.2 7.5.1.2.1.4.2.6z"/><path fill="#FFFEFE" d="M174.8 105.2c-4.2-.1-7.7-.2-11.1-1.2-3.2-.9-4.5-3-4.3-6.3.3-3.6 2.2-6.4 4.8-8.8 1.4-1.3 3-2.6 4.9-3.3 3.3-1.2 6.4-.6 9.3 1.1 3.6 2.1 6.2 5.1 6.8 9.5.3 2.5-.2 4.7-1.6 6.9-1 1.5-2.5 1.9-4 2-1.9 0-3.7.2-4.8.1zM80.4 105.2c-2.3 0-4.4-.2-6.4-.3-1.8-.1-2.8-1.3-3.6-2.7-1.3-2.1-1.2-4.3-.9-6.5.6-5.2 5.7-9.6 10.7-10.5 2.9-.5 5.6.2 7.9 2.1 2.7 2.1 5.2 4.4 6.2 7.8.6 2.2.5 4.4-.4 6.6-.4 1.2-1.5 1.8-2.6 2.2-1.8.7-3.7 1-5.6 1.2-1.9 0-3.7.2-5.3.1z"/><path fill="#F6D9A7" d="M209.9 198.8c0-.5.5-.8.9-1.1.1.5-.5.7-.3 1.1v.1h-.1c-.1-.1-.3-.1-.5-.1z"/><path fill="#FFFEFE" d="M209.9 198.8h.5c-.1.2-.2.4-.4.4l-.1-.1v-.3z"/><path fill="#1D1919" d="M157.4 192.5c-.7 2.8-1.3 5.4-2 8.1-.1.5-.5.5-.9.5-1.5 0-1.5 0-2.1 1.5-1 2.5-2 5.1-3 7.8-.6-1.2-1.6-2.1-1.6-3.5 0-3.1 0-6.1.1-9.2 0-.7-.1-.9-.8-.7-6.4 1.1-12.9 1.7-19.5 1.4-4-.2-8.1-.4-12.1-1.3-.5-.1-.9-.1-1.4-.2 0 3-.1 6 0 9 .1 1.6-.1 3.1-1.3 4.4-1.1-1.4-1.7-3.1-2.3-4.8-.4-1.3-.9-2.5-1-3.9-.1-1-.8-.9-1.4-.7-.9.3-1.2 0-1.4-.9-.2-1.1-.4-2.2-.5-3.3-.1-.8-.3-1.4-.9-1.9-.5-.4-.9-.9-1.4-1.3-.3-.3-.2-.6-.2-.9.1-.3.4-.2.5-.2h7.9c.5 0 .9.1.9.7 0 .4.3.4.6.4 3.8.2 7.5.2 11.3.2.4 0 .6-.1.8-.5.4-.8.9-1.5 1.4-2.3.4-.7.7-1.3 1.7-1.1.4.1.5-.2.5-.6v-7.3c0-.5-.3-.6-.7-.7-3.7-1.6-7.1-3.5-9.9-6.4-2.3-2.4-3.8-5.2-3.5-8.6.1-1.7 0-3.4 0-5.1 0-3.6 2.4-6 6-6h17.7c3.2 0 6.4 3.3 6.3 6.5-.1 2.6.2 5.3-.3 7.9-.7 3.8-2.8 6.7-5.9 9.1-1.6 1.2-3.2 2.1-5.1 2.8-.4.1-.5.3-.5.7v7.2c0 .5.2.7.7.6.8-.1 1.2.2 1.5.9.5 1 1 2.2 1.8 2.7s2.1.1 3.2.2h6.3c.7 0 1.2-.1 1.5-.8.1-.3.3-.5.7-.5 2.8.1 5.5.1 8.3.1z"/><path fill="#171413" d="M129.6 200.8h8.9c.6 0 .9.1.9.8 0 1.4-1.1 2.7-2.5 3-.4.1-.6-.2-.8-.4-1.7-1.4-1.7-1.4-3.1.2-.4.5-.9 1-1.3 1.5-1 1.2-2.3 1.1-3.1-.2-.5-.8-1-1.7-1.5-2.5-.2-.4-.5-.6-1-.6-1.5-.1-1.5-.1-2 1.3-.2.7-.6.8-1.2.5-.9-.4-1.8-.7-2.6-1.2-.3-.2-.5-.4-.5-.8-.1-1.6-.1-1.6 1.5-1.6 2.9-.1 5.6-.1 8.3 0z"/><path fill="#F6D9A7" d="M139.7 237.3c.6-.1 1.1-.4 1.7-.2-.6.2-1 .4-1.7.2zM142.6 236.9c-.3.1-.5.2-.9 0h.9zM209.9 198.8v.4c-.1-.1-.4 0-.3-.2 0-.1.2-.1.3-.2zM208.6 200.2c0-.3.1-.4.4-.4-.1.2-.2.3-.4.4z"/><path fill="#F7DDB0" d="M208.6 200.2l-.2.2s0-.1-.1-.1c.1-.1.2-.1.3-.1zM205.8 202.9c0 .1 0 .1 0 0 0 .1-.1.1 0 0-.2.1-.2 0 0 0-.1 0 0 0 0 0z"/><path fill="#F6D9A7" d="M209.2 199.6c0-.1.1-.2.1-.2s.1 0 .1.1c-.1 0-.2.1-.2.1zM209 199.8l.2-.2c-.1.1-.2.1-.2.2z"/><path fill="#F7DDB0" d="M208 200.7l.1-.1c.1.1 0 .1-.1.1zM208 200.8l-.1.1c0-.1.1-.1.1-.1 0-.1 0 0 0 0zM207.5 201.2zM207 201.7c0-.1.1-.2.2-.1 0 0-.1.1-.2.1zM207.1 201.7s-.1 0-.1.1c0 0 0-.1.1-.1-.1 0 0 0 0 0zM206.6 202zM206 202.6z"/><g><path fill-rule="evenodd" clip-rule="evenodd" d="M193.3 130.5c34.7 0 62.8 28.1 62.8 62.8S227.9 256 193.3 256s-62.8-28.1-62.8-62.8 28.1-62.7 62.8-62.7z"/><path fill="#F0B90B" d="M165 193.3v16.6l14.1 8.3v9.7l-22.3-13.1v-26.3l8.2 4.8zm0-16.6v9.7l-8.2-4.9v-9.7l8.2-4.9 8.3 4.9-8.3 4.9zm20-4.9l8.2-4.9 8.3 4.9-8.3 4.9-8.2-4.9zm-14.1 34.6v-9.7l8.2 4.9v9.7l-8.2-4.9zm14.1 15.2l8.2 4.9 8.3-4.9v9.7l-8.3 4.9-8.2-4.9v-9.7zm28.3-49.8l8.2-4.9 8.3 4.9v9.7l-8.3 4.9v-9.7l-8.2-4.9zm8.2 38v-16.6l8.2-4.9v26.3l-22.3 13.1V218l14.1-8.2zm-5.9-3.4l-8.2 4.8v-9.7l8.2-4.9v9.8zm0-26.3v9.7l-14.1 8.3v16.6l-8.2 4.8-8.2-4.8v-16.6l-14.1-8.3v-9.7l8.2-4.9 14.1 8.3 14.1-8.3 8.2 4.9zm-44.7-16.6l22.3-13.2 22.3 13.2-8.2 4.9-14.1-8.3-14.1 8.3-8.2-4.9z"/></g></svg>