<svg baseProfile="basic" xmlns="http://www.w3.org/2000/svg" viewBox="0 0 256 256"><linearGradient id="a" gradientUnits="userSpaceOnUse" x1="7.507" y1="1435.923" x2="247.976" y2="1676.391" gradientTransform="matrix(1 0 0 -1 0 1684)"><stop offset="0" stop-color="#9945ff"/><stop offset=".14" stop-color="#8a53f4"/><stop offset=".42" stop-color="#6377d6"/><stop offset=".79" stop-color="#24b0a7"/><stop offset=".99" stop-color="#00d18c"/><stop offset="1" stop-color="#00d18c"/></linearGradient><path fill-rule="evenodd" clip-rule="evenodd" fill="url(#a)" d="M43.8 188.3c.8-.9 1.8-1.6 2.9-2.1 1.1-.5 2.3-.8 3.5-.8h201.1c.9 0 1.7.3 2.4.7.7.5 1.3 1.1 1.6 1.9.3.8.4 1.6.3 2.5-.1.8-.5 1.6-1.1 2.2L211.9 240c-.8.9-1.8 1.6-2.9 2.1-1.1.5-2.3.8-3.5.8H4.2c-.9 0-1.7-.3-2.4-.7-.7-.5-1.3-1.1-1.6-1.9-.3-.8-.4-1.6-.3-2.5.1-.8.5-1.6 1.1-2.2l42.8-47.3zm210.8-39.2c.6.6 1 1.4 1.1 2.2.1.8 0 1.7-.3 2.5s-.9 1.4-1.6 1.9c-.7.5-1.5.7-2.4.7l-201.1.2c-1.2 0-2.4-.3-3.5-.8s-2.1-1.2-2.9-2.1l-43-47.1c-.6-.6-1-1.4-1.1-2.2-.1-.8 0-1.7.3-2.5s.9-1.4 1.6-1.9c.7-.5 1.5-.7 2.4-.7l201.2-.3c1.2 0 2.4.3 3.5.8s2.1 1.2 2.9 2.1l42.9 47.2zM43.8 15.5c.8-.9 1.8-1.6 2.9-2.1 1.1-.5 2.3-.8 3.5-.8l201.2.2c.8 0 1.7.3 2.4.7.7.5 1.3 1.1 1.6 1.9.3.8.4 1.6.3 2.5-.1.8-.5 1.6-1.1 2.2l-42.8 47.2c-.8.9-1.8 1.6-2.9 2.1-1.1.5-2.3.8-3.5.8H4.2c-.9 0-1.7-.3-2.4-.7-.7-.5-1.3-1.1-1.6-1.9-.3-.8-.4-1.6-.3-2.5.1-.9.5-1.7 1.1-2.3l42.8-47.3z"/></svg>