<svg xmlns="http://www.w3.org/2000/svg" viewBox="0 0 256 256"><path d="M256 128c0 35.35-14.33 67.35-37.49 90.51C195.35 241.67 163.35 256 128 256s-67.35-14.33-90.51-37.49C14.33 195.35 0 163.35 0 128s14.33-67.35 37.49-90.51C60.65 14.33 92.65 0 128 0s67.35 14.33 90.51 37.49C241.67 60.65 256 92.65 256 128Z" style="fill:#4da2ff;fill-rule:evenodd;stroke-width:0"/><path d="M168.23 113.79c6.99 8.77 11.16 19.87 11.16 31.93s-4.3 23.5-11.47 32.32l-.62.76-.16-.97c-.14-.82-.3-1.65-.49-2.48-3.59-15.78-15.29-29.31-34.55-40.27-13.01-7.38-20.45-16.26-22.41-26.36-1.26-6.53-.32-13.08 1.49-18.7 1.81-5.61 4.51-10.32 6.8-13.15l7.49-9.16a3.286 3.286 0 0 1 5.09 0l37.68 46.07Zm11.84-9.15-50.22-61.4a2.4 2.4 0 0 0-3.71 0l-50.21 61.4-.16.21C66.53 116.32 61 130.89 61 146.75c0 36.94 30 66.89 67 66.89s67-29.95 67-66.89c0-15.86-5.53-30.44-14.77-41.9l-.16-.2Zm-92.12 8.95 4.49-5.5.13 1.02c.11.8.24 1.61.4 2.42 2.91 15.25 13.29 27.96 30.64 37.8 15.09 8.59 23.87 18.46 26.4 29.29 1.06 4.52 1.24 8.96.78 12.85l-.03.24-.22.11a51.348 51.348 0 0 1-22.55 5.19c-28.38 0-51.38-22.96-51.38-51.3 0-12.17 4.24-23.34 11.33-32.14h.01Z" style="fill:#fff;fill-rule:evenodd;stroke-width:0"/></svg>