<svg baseProfile="basic" xmlns="http://www.w3.org/2000/svg" viewBox="0 0 256 256"><circle fill="#012968" cx="128" cy="128" r="128"/><path fill="#FFF" d="M192.4 204.8H63.6c-6.9 0-12.5-5.6-12.5-12.5V63.5c0-6.9 5.6-12.5 12.5-12.5h128.9c6.9 0 12.5 5.6 12.5 12.5v128.9c-.1 6.8-5.7 12.4-12.6 12.4z"/><path fill="#012968" d="M53.3 144.1V63.6c0-5.8 4.7-10.5 10.5-10.5h128.6c5.8 0 10.5 4.7 10.5 10.5v80.5c0 1.3-1.1 2.4-2.4 2.4H55.6c-1.3-.1-2.3-1.1-2.3-2.4z"/><path fill="#FFF" d="M128 70.1H99.1c-2.1 0-2.9.6-2.9 2.7v11c0 2 .7 2.7 2.7 2.7h18.4c2 0 2.5.4 2.5 2.4-.1 12.5 0 25.1-.1 37.6 0 2.2.7 3 3 3h9.7c3.7 0 3.7 0 3.7-3.7 0-12.2.1-24.4-.1-36.6 0-2.5.8-2.7 3-2.7h17.6c2.4 0 3.1-.8 3-3.1V73.2c0-2.4-.8-3.1-3.2-3.1H128z"/><path fill="#012968" d="M158.4 175.7v-13.3c0-.3.3-.6.6-.6h9.3c1.3 0 2.8 0 4 .2 7.8 1.2 12.9 7.2 12.4 14.3-.6 7.7-6.3 12.9-14.3 13.1H159c-.3 0-.6-.3-.6-.6-.1-2.1 0-9.8 0-13.1zm10.1-8.3h-3.3c-.3 0-.6.3-.6.6v15.8c0 .3.3.6.6.6h5c3.9 0 7.9-2.9 7.9-8.5 0-5.3-3.6-8.5-9.6-8.5zM147.2 170.6c-.2 0-.4-.1-.5-.3-.6-1.3-1.8-2.2-2.1-2.4-1.8-1.3-5.3-1.3-7.1-.2-.8.5-1.4 1.1-1.3 2.1.1.7.6 1.3 1.2 1.6 2.1 1.2 4.5 1 6.8 1.6 1.3.3 2.7.6 3.9 1 6.5 2.1 5.7 9.6 2.5 12.7-4.3 4-13.7 4.1-18 .1-.5-.4-2.5-2.5-2.9-5.3 0-.4.2-.7.6-.7h4.6c.2 0 .4.1.5.3 1.1 2 2.1 2.7 3.6 3.3 2.2.8 4.9.5 6.7-.7 1.8-1.3 1.4-3.7-.6-4.7-1.8-.8-3.8-.9-5.7-1.2-1.2-.2-2.4-.3-3.5-.6-3-.8-5.5-2.3-5.9-5.8-.4-3.2 1.2-6.3 4.3-8 2.1-1.2 4.4-1.7 6.6-1.6 4.4 0 7.5 1.5 9.8 4 .7.7 1.7 2.6 1.9 4.3 0 .4-.2.7-.6.7l-4.8-.2zM95 161.8H72.1c-.3 0-.6.3-.6.6v4.5c0 .3.3.6.6.6h8.3V189c0 .3.3.6.6.6h5.1c.3 0 .6-.3.6-.6v-21.5H95c.3 0 .6-.3.6-.6v-4.5c0-.3-.3-.6-.6-.6zM118.8 161.8c-.3 0-.6.3-.6.6v13.1c0 3.3-.9 8.4-5.8 8.4h-.2c-5.5 0-5.8-5.1-5.8-8.4v-13.1c0-.3-.3-.6-.6-.6h-5.1c-.3 0-.6.3-.6.6v13.3c0 11.2 6.1 13.9 11.8 13.9h.7c8.7 0 11.9-6.8 11.9-13.9v-13.3c0-.3-.3-.6-.6-.6h-5.1z"/></svg>