<svg xmlns="http://www.w3.org/2000/svg" viewBox="0 0 256 256"><path fill="#3375bb" d="M127.9 256A128 128 0 1 0-.1 128a128 128 0 0 0 128 128Z"/><path fill="#fff" d="M128.806 213.84a7.991 7.991 0 0 1-4.664-1.5 212.412 212.412 0 0 0-24.324-14.832C68.763 180.656 59.744 171.543 58.3 75.945a8 8 0 0 1 8-8.121l1.41.008c9.333.078 34.161.238 55.965-17.973a8.012 8.012 0 0 1 10.258 0c21.809 18.215 46.719 18.067 56.039 17.973l1.426-.008a8 8 0 0 1 8 8.121c-1.441 95.578-10.473 104.692-41.574 121.551a212.1 212.1 0 0 0-24.354 14.844 8 8 0 0 1-4.664 1.5ZM74.443 83.762c1.691 82.687 9.34 86.84 33.008 99.679 5.957 3.235 13.144 7.137 21.355 12.661A246.725 246.725 0 0 1 150.2 183.43c23.707-12.852 31.367-17 33.058-99.668-12.355-.418-34.082-3-54.453-17.645-20.35 14.637-42.022 17.223-54.362 17.645Z"/><path fill-rule="evenodd" d="M193.25 130.5a62.75 62.75 0 1 1-62.75 62.75 62.747 62.747 0 0 1 62.75-62.75Z"/><path fill="#f0b90b" d="m164.987 193.25.046 16.593 14.1 8.3v9.714l-22.349-13.108V188.4l8.2 4.852Zm0-16.593v9.669l-8.21-4.857V171.8l8.21-4.857 8.251 4.857-8.251 4.857Zm20.032-4.857 8.211-4.857 8.251 4.857-8.251 4.857-8.211-4.857Zm-14.1 34.6v-9.714l8.211 4.857v9.669l-8.21-4.812Zm14.1 15.215 8.211 4.857 8.251-4.857v9.669l-8.251 4.857-8.211-4.857v-9.669Zm28.238-49.815 8.21-4.857 8.251 4.857v9.669l-8.251 4.857v-9.669l-8.21-4.857Zm8.21 38.043.046-16.593 8.21-4.857v26.347l-22.349 13.108v-9.714l14.093-8.291Zm-5.887-3.44-8.211 4.812v-9.669l8.211-4.857Zm0-26.306.045 9.714-14.139 8.3v16.629l-8.211 4.812-8.211-4.812v-16.633l-14.139-8.3V180.1l8.246-4.857 14.054 8.336 14.139-8.336 8.251 4.857Zm-44.66-16.588 22.31-13.153 22.35 13.153-8.211 4.857-14.139-8.336-14.1 8.336-8.211-4.857Z"/></svg>