<svg xmlns="http://www.w3.org/2000/svg" viewBox="0 0 256 256"><defs><clipPath id="a"><path fill="none" d="M144.74 130.5H256V256H144.74z"/></clipPath></defs><circle cx="128" cy="128" r="128" fill="#2775ca"/><path d="M104 217a3.78 3.78 0 0 1-5.2 3.8 96.07 96.07 0 0 1 0-183c2.9-.9 5.2.8 5.2 3.8v7.5a5.73 5.73 0 0 1-3.4 5 80 80 0 0 0 0 150.3 5.73 5.73 0 0 1 3.4 5Z" fill="#fff"/><path d="M136 189.3a4 4 0 0 1-4 4h-8a4 4 0 0 1-4-4v-12.6c-17.5-2.4-26-12.1-28.3-25.5a3.69 3.69 0 0 1 3.7-4.3h9.1a4.06 4.06 0 0 1 3.9 3.2c1.7 7.9 6.3 14 20.3 14 10.3 0 17.7-5.8 17.7-14.4s-4.3-11.9-19.5-14.4c-22.4-3-33-9.8-33-27.3 0-13.5 10.3-24.1 26.1-26.3V69.3a4 4 0 0 1 4-4h8a4 4 0 0 1 4 4V82c12.9 2.3 21.1 9.6 23.8 21.8a3.67 3.67 0 0 1-3.7 4.4h-8.4a4 4 0 0 1-3.8-2.9c-2.3-7.7-7.8-11.1-17.4-11.1-10.6 0-16.1 5.1-16.1 12.3 0 7.6 3.1 11.4 19.4 13.7 22 3 33.4 9.3 33.4 28 0 14.2-10.6 25.7-27.1 28.3v12.8Z" fill="#fff"/><path d="M157.2 220.8c-2.9.9-5.2-.8-5.2-3.8v-7.5a5.21 5.21 0 0 1 3.4-5 79.91 79.91 0 0 0 0-150.2 5.73 5.73 0 0 1-3.4-5v-7.5a3.78 3.78 0 0 1 5.2-3.8 95.93 95.93 0 0 1 0 182.8Z" fill="#fff"/><g clip-path="url(#a)"><path d="M149 168.65v49.2a8.77 8.77 0 0 0 4.39 7.61L196 250.07a8.84 8.84 0 0 0 8.79 0l42.62-24.61a8.78 8.78 0 0 0 4.4-7.61v-49.2a8.78 8.78 0 0 0-4.4-7.61l-42.62-24.61a8.84 8.84 0 0 0-8.79 0L153.35 161a8.76 8.76 0 0 0-4.35 7.65Z" fill="#213147"/><path d="m209.67 202.79-6.07 16.67a2.07 2.07 0 0 0 0 1.43l10.45 28.67 12.1-7-14.52-39.79a1 1 0 0 0-1.96.02ZM221.86 174.77a1 1 0 0 0-2 0l-6.08 16.66a2.19 2.19 0 0 0 0 1.43L231 239.81l12.09-7Z" fill="#12aaff"/><path d="M200.37 138.28a1.9 1.9 0 0 1 .87.22l46.12 26.63a1.73 1.73 0 0 1 .86 1.49v53.24a1.72 1.72 0 0 1-.86 1.49L201.24 248a1.76 1.76 0 0 1-.87.22 1.83 1.83 0 0 1-.86-.22l-46.13-26.61a1.73 1.73 0 0 1-.86-1.49v-53.27a1.72 1.72 0 0 1 .86-1.49l46.13-26.63a1.73 1.73 0 0 1 .86-.23Zm0-7.78a9.42 9.42 0 0 0-4.76 1.28l-46.11 26.61a9.5 9.5 0 0 0-4.76 8.24v53.24a9.5 9.5 0 0 0 4.76 8.24l46.12 26.62a9.49 9.49 0 0 0 9.52 0l46.12-26.62a9.5 9.5 0 0 0 4.76-8.24v-53.24a9.5 9.5 0 0 0-4.76-8.24l-46.13-26.61a9.42 9.42 0 0 0-4.76-1.28Z" fill="#9dcced"/><path d="m169.87 239.87 4.24-11.62 8.54 7.1-8 7.29Z" fill="#213147"/><path d="M196.49 162.82h-11.7a2.08 2.08 0 0 0-1.95 1.37l-25.07 68.7 12.1 7 27.59-75.65a1 1 0 0 0-.97-1.42ZM217 162.82h-11.7a2.08 2.08 0 0 0-1.95 1.37l-28.62 78.44 12.09 7 31.16-85.39a1 1 0 0 0-.98-1.42Z" fill="#fff"/></g></svg>