<svg xmlns="http://www.w3.org/2000/svg" xmlns:xlink="http://www.w3.org/1999/xlink" viewBox="0 0 256 256"><defs><style>.g{fill:#fff;}.h{fill:#2775ca;}.i{fill:url(#c);}.i,.j{fill-rule:evenodd;}</style><linearGradient id="c" x1="152.141" y1="7977.641" x2="234.332" y2="8059.832" gradientTransform="translate(0 8212) scale(1 -1)" gradientUnits="userSpaceOnUse"><stop offset="0" stop-color="#9945ff"/><stop offset=".14" stop-color="#8a53f4"/><stop offset=".42" stop-color="#6377d6"/><stop offset=".79" stop-color="#24b0a7"/><stop offset=".99" stop-color="#00d18c"/><stop offset="1" stop-color="#00d18c"/></linearGradient></defs><g id="a"><g id="b"><circle cx="128" cy="128" r="128" style="fill:#2775ca;"/><path d="M104,217c0,3-2.4,4.7-5.2,3.8-38.8-12.4-66.8-48.6-66.8-91.5S60,50.2,98.8,37.8c2.9-.9,5.2,.8,5.2,3.8v7.5c0,2-1.5,4.3-3.4,5-30.7,11.3-52.6,40.8-52.6,75.2s21.9,63.9,52.6,75.1c1.9,.7,3.4,3,3.4,5v7.6Z" style="fill:#fff;"/><path d="M136,189.3c0,2.2-1.8,4-4,4h-8c-2.2,0-4-1.8-4-4v-12.6c-17.5-2.4-26-12.1-28.3-25.5-.4-2.3,1.4-4.3,3.7-4.3h9.1c1.9,0,3.5,1.4,3.9,3.2,1.7,7.9,6.3,14,20.3,14,10.3,0,17.7-5.8,17.7-14.4s-4.3-11.9-19.5-14.4c-22.4-3-33-9.8-33-27.3,0-13.5,10.3-24.1,26.1-26.3v-12.4c0-2.2,1.8-4,4-4h8c2.2,0,4,1.8,4,4v12.7c12.9,2.3,21.1,9.6,23.8,21.8,.5,2.3-1.3,4.4-3.7,4.4h-8.4c-1.8,0-3.3-1.2-3.8-2.9-2.3-7.7-7.8-11.1-17.4-11.1-10.6,0-16.1,5.1-16.1,12.3,0,7.6,3.1,11.4,19.4,13.7,22,3,33.4,9.3,33.4,28,0,14.2-10.6,25.7-27.1,28.3v12.8h-.1Z" style="fill:#fff;"/><path d="M157.2,220.8c-2.9,.9-5.2-.8-5.2-3.8v-7.5c0-2.2,1.3-4.3,3.4-5,30.6-11.2,52.6-40.7,52.6-75.1s-21.9-63.9-52.6-75.1c-1.9-.7-3.4-3-3.4-5v-7.5c0-3,2.4-4.7,5.2-3.8,38.8,12.2,66.8,48.5,66.8,91.3s-28,79.1-66.8,91.5Z" style="fill:#fff;"/></g><g><path d="M193.25,130.5c34.658,0,62.75,28.092,62.75,62.75s-28.092,62.75-62.75,62.75-62.75-28.092-62.75-62.75,28.092-62.75,62.75-62.75h0Z" style="fill-rule:evenodd;"/><path d="M164.529,213.922c.28-.303,.618-.546,.993-.715,.376-.169,.782-.261,1.194-.269h68.73c.291,.004,.574,.092,.816,.253,.242,.161,.432,.389,.548,.656,.116,.267,.152,.561,.103,.848-.048,.287-.177,.554-.373,.769l-14.569,16.176c-.28,.303-.618,.546-.993,.715-.376,.169-.782,.261-1.194,.269h-68.774c-.291-.004-.574-.092-.816-.253-.242-.161-.432-.389-.548-.656-.116-.267-.152-.561-.104-.848s.178-.554,.374-.769l14.612-16.176Zm72.077-13.409c.196,.215,.326,.482,.373,.769,.048,.287,.012,.581-.103,.848-.116,.267-.306,.495-.548,.656-.242,.161-.525,.249-.816,.253l-68.752,.055c-.412-.008-.818-.1-1.194-.269-.376-.169-.714-.412-.993-.715l-14.678-16.122c-.196-.215-.326-.482-.374-.769-.048-.287-.012-.581,.104-.848,.116-.267,.306-.495,.548-.656,.242-.161,.525-.249,.816-.253l68.752-.055c.412,.008,.818,.1,1.194,.269,.376,.169,.714,.412,.993,.715l14.678,16.122Zm-72.077-45.652c.28-.303,.618-.546,.993-.715,.376-.169,.782-.261,1.194-.269l68.774,.055c.29,.004,.574,.092,.816,.253,.242,.161,.431,.389,.547,.656,.116,.267,.152,.561,.104,.848-.048,.287-.178,.554-.374,.769l-14.612,16.122c-.28,.303-.618,.546-.993,.715-.376,.169-.782,.261-1.194,.269h-68.774c-.291-.004-.574-.092-.816-.253-.242-.161-.432-.389-.548-.656-.116-.267-.152-.561-.104-.848,.048-.287,.178-.554,.374-.769l14.612-16.176Z" style="fill:url(#c); fill-rule:evenodd;"/></g></g><g id="d"/><g id="e"/><g id="f"/></svg>