<svg baseProfile="basic" xmlns="http://www.w3.org/2000/svg" viewBox="0 0 256 256"><circle fill="#2775CA" cx="128" cy="128" r="128"/><path fill="#FFF" d="M104 217c0 3-2.4 4.7-5.2 3.8C60 208.4 32 172.2 32 129.3c0-42.8 28-79.1 66.8-91.5 2.9-.9 5.2.8 5.2 3.8v7.5c0 2-1.5 4.3-3.4 5C69.9 65.4 48 94.9 48 129.3c0 34.5 21.9 63.9 52.6 75.1 1.9.7 3.4 3 3.4 5v7.6z"/><path fill="#FFF" d="M136 189.3c0 2.2-1.8 4-4 4h-8c-2.2 0-4-1.8-4-4v-12.6c-17.5-2.4-26-12.1-28.3-25.5-.4-2.3 1.4-4.3 3.7-4.3h9.1c1.9 0 3.5 1.4 3.9 3.2 1.7 7.9 6.3 14 20.3 14 10.3 0 17.7-5.8 17.7-14.4 0-8.6-4.3-11.9-19.5-14.4-22.4-3-33-9.8-33-27.3 0-13.5 10.3-24.1 26.1-26.3V69.3c0-2.2 1.8-4 4-4h8c2.2 0 4 1.8 4 4V82c12.9 2.3 21.1 9.6 23.8 21.8.5 2.3-1.3 4.4-3.7 4.4h-8.4c-1.8 0-3.3-1.2-3.8-2.9-2.3-7.7-7.8-11.1-17.4-11.1-10.6 0-16.1 5.1-16.1 12.3 0 7.6 3.1 11.4 19.4 13.7 22 3 33.4 9.3 33.4 28 0 14.2-10.6 25.7-27.1 28.3v12.8h-.1z"/><path fill="#FFF" d="M157.2 220.8c-2.9.9-5.2-.8-5.2-3.8v-7.5c0-2.2 1.3-4.3 3.4-5 30.6-11.2 52.6-40.7 52.6-75.1 0-34.5-21.9-63.9-52.6-75.1-1.9-.7-3.4-3-3.4-5v-7.5c0-3 2.4-4.7 5.2-3.8C196 50.2 224 86.5 224 129.3c0 42.9-28 79.1-66.8 91.5z"/><g><path fill-rule="evenodd" clip-rule="evenodd" d="M193.3 130.5c34.7 0 62.8 28.1 62.8 62.8S227.9 256 193.3 256s-62.8-28.1-62.8-62.8 28.1-62.7 62.8-62.7z"/><path fill="#F0B90B" d="M165 193.3v16.6l14.1 8.3v9.7l-22.3-13.1v-26.3l8.2 4.8zm0-16.6v9.7l-8.2-4.9v-9.7l8.2-4.9 8.3 4.9-8.3 4.9zm20-4.9l8.2-4.9 8.3 4.9-8.3 4.9-8.2-4.9zm-14.1 34.6v-9.7l8.2 4.9v9.7l-8.2-4.9zm14.1 15.2l8.2 4.9 8.3-4.9v9.7l-8.3 4.9-8.2-4.9v-9.7zm28.3-49.8l8.2-4.9 8.3 4.9v9.7l-8.3 4.9v-9.7l-8.2-4.9zm8.2 38v-16.6l8.2-4.9v26.3l-22.3 13.1V218l14.1-8.2zm-5.9-3.4l-8.2 4.8v-9.7l8.2-4.9v9.8zm0-26.3v9.7l-14.1 8.3v16.6l-8.2 4.8-8.2-4.8v-16.6l-14.1-8.3v-9.7l8.2-4.9 14.1 8.3 14.1-8.3 8.2 4.9zm-44.7-16.6l22.3-13.2 22.3 13.2-8.2 4.9-14.1-8.3-14.1 8.3-8.2-4.9z"/></g></svg>