<svg baseProfile="basic" xmlns="http://www.w3.org/2000/svg" viewBox="0 0 256 256"><circle fill="#00A04F" cx="128" cy="128" r="128"/><radialGradient id="a" cx="215.583" cy="49.297" r="158.571" gradientTransform="matrix(1.0017 .03923 -.04262 1.0829 8.692 -12.543)" gradientUnits="userSpaceOnUse"><stop offset="0" stop-color="#cbe436"/><stop offset=".079" stop-color="#c3e237"/><stop offset=".205" stop-color="#acde3a"/><stop offset=".361" stop-color="#87d63f"/><stop offset=".539" stop-color="#54cb47"/><stop offset=".663" stop-color="#2cc34c"/><stop offset=".848" stop-color="#16b14e" stop-opacity=".45"/><stop offset="1" stop-color="#00a04f" stop-opacity="0"/></radialGradient><path opacity=".74" fill="url(#a)" d="M128 0c-19.5 0-38 4.4-54.5 12.2-1.7 37.4 5.3 78.3 22 118.5 20.2 48.4 51.2 87.6 86.5 113.5 43.7-20.4 74-64.8 74-116.2C256 57.3 198.7 0 128 0z"/><radialGradient id="b" cx=".877" cy="187.887" r="205.289" gradientTransform="matrix(1.0025 0 0 1.1534 6.425 -28.817)" gradientUnits="userSpaceOnUse"><stop offset="0" stop-color="#004f2a"/><stop offset=".195" stop-color="#00552d" stop-opacity=".805"/><stop offset=".445" stop-color="#006534" stop-opacity=".555"/><stop offset=".726" stop-color="#007f40" stop-opacity=".274"/><stop offset="1" stop-color="#00a04f" stop-opacity="0"/></radialGradient><path fill="url(#b)" d="M0 128c0 70.7 57.3 128 128 128 27.4 0 52.7-8.6 73.5-23.2 5.1-20.5 7.8-42 7.8-64.4 0-65.2-23-124.1-60.3-166.7C142.2.6 135.2 0 128 0 57.3 0 0 57.3 0 128z"/><path fill="#FFF" d="M115.7 118.3v19.3h-12.1c-19.3 0-38.9-10.3-38.9-35.3s20.2-35.4 38.9-35.4h12.1V36h24.4v30.9h47.3v19.4h-47.3v31.9h-24.4V86.4h-7.9c-9.5 0-18.4 4.6-18.4 16 0 11.3 8.9 16 18.4 16h7.9zm36.7 0h-12.3v19.3h8.2c9.5 0 18.4 4.6 18.4 16s-8.9 16-18.4 16h-8.2v-31.9h-24.4v31.9H68.4V189h47.2v31H140v-31.1h12.3c18.7 0 38.9-10.5 38.9-35.4s-19.5-35.2-38.8-35.2z"/></svg>