<svg xmlns="http://www.w3.org/2000/svg" viewBox="0 0 256.32 256.32"><path d="M47.85 27.06 1.17 125.11c-.36.75-.2 1.65.41 2.22l126.07 120.8c.74.71 1.92.71 2.66 0l126.07-120.8c.61-.57.77-1.47.41-2.22l-46.68-98.04c-.31-.67-.98-1.1-1.72-1.1H49.59a1.9 1.9 0 0 0-1.73 1.09Z" style="fill:#50af95;fill-rule:evenodd"/><path d="M145.18 135.18c-.91.07-5.58.35-16.01.35-8.3 0-14.19-.25-16.25-.35-32.06-1.41-55.99-6.99-55.99-13.67s23.93-12.26 55.99-13.69v21.8c2.1.15 8.1.51 16.4.51 9.96 0 14.94-.41 15.84-.5v-21.8c31.99 1.43 55.87 7.01 55.87 13.67s-23.87 12.25-55.87 13.67h.03Zm0-29.6V86.07h44.65V56.32H68.26v29.75h44.64v19.5c-36.29 1.67-63.57 8.85-63.57 17.47s27.29 15.79 63.57 17.47v62.53h32.27v-62.55c36.2-1.67 63.45-8.85 63.45-17.45s-27.22-15.79-63.45-17.46Zm0 0" style="fill-rule:evenodd;fill:#fff"/><path d="M193.57 130.82c34.66 0 62.75 28.09 62.75 62.75s-28.09 62.75-62.75 62.75-62.75-28.09-62.75-62.75 28.09-62.75 62.75-62.75Z" style="fill-rule:evenodd"/><path d="m165.31 193.57.05 16.59 14.1 8.3v9.71l-22.35-13.11v-26.35l8.21 4.85Zm0-16.59v9.67l-8.21-4.86v-9.67l8.21-4.86 8.25 4.86-8.25 4.86Zm20.03-4.86 8.21-4.86 8.25 4.86-8.25 4.86-8.21-4.86Zm-14.1 34.6v-9.71l8.21 4.86v9.67l-8.21-4.81Zm14.1 15.21 8.21 4.86 8.25-4.86v9.67l-8.25 4.86-8.21-4.86v-9.67Zm28.24-49.82 8.21-4.86 8.25 4.86v9.67l-8.25 4.86v-9.67l-8.21-4.86Zm8.21 38.04.05-16.59 8.21-4.86v26.35l-22.35 13.11v-9.71l14.09-8.29Zm-5.89-3.44-8.21 4.81v-9.67l8.21-4.86v9.71Zm0-26.31.05 9.71-14.14 8.3v16.63l-8.21 4.81-8.21-4.81v-16.63l-14.14-8.3v-9.71l8.25-4.86 14.05 8.34 14.14-8.34 8.25 4.86h-.04Zm-44.66-16.59 22.31-13.15 22.35 13.15-8.21 4.86-14.14-8.34-14.1 8.34-8.21-4.86Z" style="fill:#f0b90b"/></svg>