<svg xmlns="http://www.w3.org/2000/svg" viewBox="0 0 256 256"><defs><linearGradient id="a" x1="152.14" x2="234.33" y1="8521.64" y2="8603.83" gradientTransform="matrix(1 0 0 -1 0 8756)" gradientUnits="userSpaceOnUse"><stop offset="0" stop-color="#9945ff"/><stop offset=".14" stop-color="#8a53f4"/><stop offset=".42" stop-color="#6377d6"/><stop offset=".79" stop-color="#24b0a7"/><stop offset=".99" stop-color="#00d18c"/><stop offset="1" stop-color="#00d18c"/></linearGradient></defs><path d="M46.87 26.74.19 124.79c-.36.75-.2 1.65.41 2.22l126.07 120.8c.74.71 1.92.71 2.66 0l126.07-120.8c.61-.57.77-1.47.41-2.22l-46.68-98.04c-.31-.67-.98-1.1-1.72-1.1H48.61a1.9 1.9 0 0 0-1.73 1.09Z" style="fill:#50af95;fill-rule:evenodd"/><path d="M144.2 134.86c-.91.07-5.58.35-16.01.35-8.3 0-14.19-.25-16.25-.35-32.06-1.41-55.99-6.99-55.99-13.67s23.93-12.26 55.99-13.69v21.8c2.1.15 8.1.51 16.4.51 9.96 0 14.94-.41 15.84-.5v-21.8c31.99 1.43 55.87 7.01 55.87 13.67s-23.87 12.25-55.87 13.67h.03Zm0-29.6V85.75h44.65V56H67.28v29.75h44.64v19.5c-36.29 1.67-63.57 8.85-63.57 17.47s27.29 15.79 63.57 17.47v62.53h32.27v-62.55c36.2-1.67 63.45-8.85 63.45-17.45s-27.22-15.79-63.45-17.46Zm0 0" style="fill-rule:evenodd;fill:#fff"/><path d="M193.25 130.5c34.66 0 62.75 28.09 62.75 62.75S227.91 256 193.25 256s-62.75-28.09-62.75-62.75 28.09-62.75 62.75-62.75Z" style="fill-rule:evenodd"/><path d="M164.53 213.92c.28-.3.62-.55.99-.72.38-.17.78-.26 1.19-.27h68.73c.29 0 .57.09.82.25.24.16.43.39.55.66.12.27.15.56.1.85-.05.29-.18.55-.37.77l-14.57 16.18c-.28.3-.62.55-.99.72-.38.17-.78.26-1.19.27h-68.77c-.29 0-.57-.09-.82-.25-.24-.16-.43-.39-.55-.66-.12-.27-.15-.56-.1-.85s.18-.55.37-.77l14.61-16.18Zm72.08-13.41c.2.21.33.48.37.77.05.29.01.58-.1.85-.12.27-.31.49-.55.66-.24.16-.52.25-.82.25l-68.75.05c-.41 0-.82-.1-1.19-.27-.38-.17-.71-.41-.99-.72l-14.68-16.12c-.2-.21-.33-.48-.37-.77-.05-.29-.01-.58.1-.85.12-.27.31-.49.55-.66.24-.16.53-.25.82-.25l68.75-.05c.41 0 .82.1 1.19.27.38.17.71.41.99.72l14.68 16.12Zm-72.08-45.65c.28-.3.62-.55.99-.72.38-.17.78-.26 1.19-.27l68.77.05c.29 0 .57.09.82.25.24.16.43.39.55.66.12.27.15.56.1.85-.05.29-.18.55-.37.77l-14.61 16.12c-.28.3-.62.55-.99.72-.38.17-.78.26-1.19.27h-68.77c-.29 0-.57-.09-.82-.25-.24-.16-.43-.39-.55-.66-.12-.27-.15-.56-.1-.85.05-.29.18-.55.37-.77l14.61-16.18Z" style="fill:url(#a);fill-rule:evenodd"/></svg>