<svg xmlns="http://www.w3.org/2000/svg" viewBox="0 0 256 256"><defs><clipPath id="a"><path fill="none" d="M144.74 130.5H256V256H144.74z"/></clipPath></defs><path d="M46.87 26.74.19 124.79A1.91 1.91 0 0 0 .6 127l126.07 120.82a1.93 1.93 0 0 0 2.66 0L255.4 127a1.91 1.91 0 0 0 .41-2.22l-46.68-98a1.89 1.89 0 0 0-1.72-1.1H48.61a1.89 1.89 0 0 0-1.74 1.09Z" fill="#50af95" fill-rule="evenodd"/><path d="M144.2 134.86c-.91.07-5.58.35-16 .35-8.29 0-14.18-.25-16.25-.35-32.06-1.41-56-7-56-13.67s23.93-12.26 56-13.69v21.8c2.1.15 8.1.51 16.4.51 9.95 0 14.94-.42 15.84-.5v-21.8c32 1.43 55.87 7 55.87 13.68s-23.87 12.25-55.87 13.66Zm0-29.6V85.75h44.65V56H67.28v29.75h44.64v19.5c-36.28 1.67-63.57 8.86-63.57 17.47s27.29 15.79 63.57 17.47v62.52h32.27v-62.55c36.2-1.66 63.45-8.84 63.45-17.45s-27.22-15.78-63.45-17.46Zm0 0" fill="#fff" fill-rule="evenodd"/><g clip-path="url(#a)"><path d="M149 168.65v49.2a8.77 8.77 0 0 0 4.39 7.61L196 250.07a8.84 8.84 0 0 0 8.79 0l42.62-24.61a8.78 8.78 0 0 0 4.4-7.61v-49.2a8.78 8.78 0 0 0-4.4-7.61l-42.62-24.61a8.84 8.84 0 0 0-8.79 0L153.35 161a8.76 8.76 0 0 0-4.35 7.65Z" fill="#213147"/><path d="m209.67 202.79-6.07 16.67a2.07 2.07 0 0 0 0 1.43l10.45 28.67 12.1-7-14.52-39.79a1 1 0 0 0-1.96.02ZM221.86 174.77a1 1 0 0 0-2 0l-6.08 16.66a2.19 2.19 0 0 0 0 1.43L231 239.81l12.09-7Z" fill="#12aaff"/><path d="M200.37 138.28a1.9 1.9 0 0 1 .87.22l46.12 26.63a1.73 1.73 0 0 1 .86 1.49v53.24a1.72 1.72 0 0 1-.86 1.49L201.24 248a1.76 1.76 0 0 1-.87.22 1.83 1.83 0 0 1-.86-.22l-46.13-26.61a1.73 1.73 0 0 1-.86-1.49v-53.27a1.72 1.72 0 0 1 .86-1.49l46.13-26.63a1.73 1.73 0 0 1 .86-.23Zm0-7.78a9.42 9.42 0 0 0-4.76 1.28l-46.11 26.61a9.5 9.5 0 0 0-4.76 8.24v53.24a9.5 9.5 0 0 0 4.76 8.24l46.12 26.62a9.49 9.49 0 0 0 9.52 0l46.12-26.62a9.5 9.5 0 0 0 4.76-8.24v-53.24a9.5 9.5 0 0 0-4.76-8.24l-46.13-26.61a9.42 9.42 0 0 0-4.76-1.28Z" fill="#9dcced"/><path d="m169.87 239.87 4.24-11.62 8.54 7.1-8 7.29Z" fill="#213147"/><path d="M196.49 162.82h-11.7a2.08 2.08 0 0 0-1.95 1.37l-25.07 68.7 12.1 7 27.59-75.65a1 1 0 0 0-.97-1.42ZM217 162.82h-11.7a2.08 2.08 0 0 0-1.95 1.37l-28.62 78.44 12.09 7 31.16-85.39a1 1 0 0 0-.98-1.42Z" fill="#fff"/></g></svg>