<svg xmlns="http://www.w3.org/2000/svg" xml:space="preserve" style="enable-background:new 0 0 256 256" viewBox="0 0 256 256"><style>.st715{opacity:.1;fill:#fff;enable-background:new}</style><g id="main__x28_копия_x29_"><linearGradient id="SVGID_1_" x1="0" x2="256" y1="-5042" y2="-5042" gradientTransform="matrix(1 0 0 -1 0 -4914)" gradientUnits="userSpaceOnUse"><stop offset="0" style="stop-color:#9d4abe"/><stop offset=".03" style="stop-color:#9055c4"/><stop offset=".15" style="stop-color:#6b74d6"/><stop offset=".26" style="stop-color:#4c8fe5"/><stop offset=".39" style="stop-color:#34a3f0"/><stop offset=".52" style="stop-color:#22b2f9"/><stop offset=".66" style="stop-color:#18bafd"/><stop offset=".83" style="stop-color:#15bdff"/><stop offset="1" style="stop-color:#28bad5"/></linearGradient><path d="M110.1 238 .6 14.9c-1.8-3.6.9-7.8 4.8-7.8h37.9c2 0 3.9 1.2 4.8 2.9l80 161.8c7.1 14.5 27.8 14.5 34.9 0l79.7-161.7c.9-1.8 2.8-2.9 4.8-2.9h4.7c2.8 0 4.6 2.9 3.3 5.3L144.9 238c-7.1 14.5-27.7 14.5-34.8 0z" style="fill:url(#SVGID_1_)"/><path d="M110.1 238 48.2 10.2c-.9-1.9-2.9-2.9-4.6-2.9H5.5c-4.2 0-6.6 4.2-5 7.8L110.1 238z" class="st715"/><path d="M128.1 172 .6 14.9c-1.5-3.7.8-7.4 4.3-7.8h38.6c2.2.1 3.8 1.5 4.6 2.9l80 162z" class="st715"/></g></svg>