<svg xmlns="http://www.w3.org/2000/svg" viewBox="0 0 256 256"><path d="M128 0c70.7 0 128 57.3 128 128s-57.3 128-128 128S0 198.7 0 128 57.3 0 128 0" style="fill:#f0b90b;fill-rule:evenodd"/><path d="m70.35 128 .09 33.85 28.76 16.92v19.82l-45.59-26.74v-53.74l16.74 9.9Zm0-33.85v19.72l-16.75-9.91V84.24l16.75-9.91 16.83 9.91zm40.86-9.9 16.75-9.91 16.83 9.91-16.83 9.91zm-28.76 70.58v-19.82l16.75 9.91v19.72l-16.75-9.82Zm28.76 31.04 16.75 9.91 16.83-9.91v19.72l-16.83 9.91-16.75-9.91zm57.6-101.62 16.75-9.91 16.83 9.91v19.72l-16.83 9.91V94.16zm16.75 77.6.09-33.85 16.75-9.91v53.74l-45.59 26.74v-19.82l28.75-16.91Zm-12.01-7.02-16.75 9.82v-19.72l16.75-9.91v19.82Zm0-53.66.09 19.82-28.84 16.92v33.93l-16.75 9.82-16.75-9.82v-33.93l-28.84-16.92v-19.82l16.82-9.91 28.67 17.01 28.84-17.01 16.83 9.91zm-91.1-33.84 45.51-26.83 45.59 26.83-16.75 9.91-28.84-17.01L99.2 77.24z" style="fill:#fff"/><path d="M148.16 224.05v-61.6l53.34-30.8 53.34 30.8v61.6l-53.34 30.8z" style="fill:#f0b90b"/><path d="m201.5 132.81 52.34 30.22v60.44l-52.34 30.22-52.34-30.22v-60.44zm0-2.31-54.34 31.38v62.75l54.34 31.38 54.34-31.38v-62.75z"/><path d="m173.24 193.25.05 16.59 14.1 8.3v9.71l-22.35-13.11v-26.35l8.21 4.85Zm0-16.59v9.67l-8.21-4.86v-9.67l8.21-4.86 8.25 4.86zm20.03-4.86 8.21-4.86 8.25 4.86-8.25 4.86zm-14.1 34.6v-9.71l8.21 4.86v9.67l-8.21-4.81Zm14.1 15.22 8.21 4.86 8.25-4.86v9.67l-8.25 4.86-8.21-4.86zm28.24-49.82 8.21-4.86 8.25 4.86v9.67l-8.25 4.86v-9.67zm8.21 38.04.05-16.59 8.21-4.86v26.35l-22.35 13.11v-9.71l14.09-8.29Zm-5.89-3.44-8.21 4.81v-9.67l8.21-4.86v9.71Zm0-26.3.05 9.71-14.14 8.3v16.63l-8.21 4.81-8.21-4.81v-16.63l-14.14-8.3v-9.71l8.25-4.86 14.05 8.34 14.14-8.34 8.25 4.86zm-44.66-16.59 22.31-13.15 22.35 13.15-8.21 4.86-14.14-8.34-14.1 8.34z" style="fill:#fff"/><path d="M200.14 184.62c-.52-1.77-1.44-3.27-2.76-4.48-1.29-1.22-2.87-2.12-4.74-2.71-1.84-.63-3.86-.94-6.05-.94-5.07 0-9.1 1.22-12.09 3.65s-5.05 5.99-6.2 10.68c-.35 1.53-.69 3.04-1.04 4.53-.31 1.49-.61 2.99-.89 4.48-.38 2.36-.31 4.43.21 6.2.56 1.77 1.48 3.25 2.76 4.43 1.29 1.18 2.87 2.07 4.74 2.66 1.88.59 3.91.89 6.1.89 5.04 0 9.05-1.16 12.04-3.49 2.99-2.36 5.07-5.92 6.25-10.68.35-1.49.68-2.99.99-4.48.35-1.49.64-3 .89-4.53.42-2.36.35-4.43-.21-6.2Zm-9.48 6.36c-.24 1.46-.52 2.87-.83 4.22-.28 1.36-.61 2.8-.99 4.33-.59 2.43-1.6 4.2-3.02 5.32-1.42 1.11-3.07 1.67-4.95 1.67s-3.28-.56-4.12-1.67c-.83-1.11-1.04-2.88-.63-5.32.28-1.53.56-2.97.83-4.33.31-1.35.66-2.76 1.04-4.22.59-2.43 1.58-4.2 2.97-5.32 1.42-1.11 3.07-1.67 4.95-1.67s3.25.56 4.12 1.67 1.08 2.88.63 5.32M236.51 183.79c-.45-1.53-1.25-2.8-2.4-3.8-1.15-1.01-2.59-1.75-4.33-2.24-1.7-.49-3.61-.73-5.73-.73h-13.86q-.525 0-.99.36c-.465.36-.5.56-.57.94l-7.19 33.87c-.07.38 0 .7.21.94s.49.36.83.36h7.09q.57 0 .99-.36c.31-.24.5-.56.57-.94l2.4-11.41h7.04c4.48 0 8.04-.96 10.68-2.87 2.68-1.91 4.45-4.86 5.32-8.86.42-2.01.4-3.77-.05-5.26Zm-9.58 5.15c-.35 1.56-1.09 2.73-2.24 3.49-1.11.76-2.38 1.15-3.8 1.15h-5.99l2.03-9.33h6.25q1.875 0 2.76.63c.63.42.99.97 1.09 1.67s.07 1.49-.1 2.4Z" style="fill-rule:evenodd"/></svg>