<svg xmlns="http://www.w3.org/2000/svg" viewBox="0 0 256 256"><path fill="#f0b90b" fill-rule="evenodd" d="M128 0A128 128 0 1 1 0 128 127.994 127.994 0 0 1 128 0Z"/><path fill="#fff" d="m70.349 128 .092 33.846L99.2 178.769v19.816l-45.59-26.739V118.1l16.739 9.9Zm0-33.846v19.723L53.6 103.969V84.246l16.749-9.908 16.83 9.908-16.83 9.908Zm40.861-9.908 16.749-9.908 16.831 9.908-16.831 9.908-16.749-9.908Zm-28.759 70.585v-19.816l16.749 9.908v19.723l-16.749-9.815Zm28.759 31.036 16.749 9.907 16.831-9.907v19.723l-16.831 9.91-16.749-9.91v-19.723Zm57.6-101.621 16.749-9.908 16.831 9.908v19.723l-16.831 9.908V94.154l-16.749-9.908Zm16.749 77.6.092-33.846 16.749-9.908v53.744l-45.59 26.738v-19.815l28.749-16.913Zm-12.01-7.015-16.749 9.815v-19.723l16.749-9.908Zm0-53.662.092 19.816-28.841 16.923v33.928l-16.749 9.815-16.751-9.815v-33.928l-28.838-16.923v-19.816l16.82-9.907 28.667 17 28.841-17 16.831 9.907Zm-91.1-33.836 45.51-26.833 45.59 26.83-16.749 9.911-28.841-17.005L99.2 77.241l-16.749-9.908Z"/><path fill-rule="evenodd" d="M193.25 130.5a62.75 62.75 0 1 1-62.75 62.75 62.747 62.747 0 0 1 62.75-62.75Z"/><path fill="#f0b90b" d="m164.987 193.25.046 16.593 14.1 8.3v9.714l-22.349-13.108V188.4l8.2 4.852Zm0-16.593v9.669l-8.21-4.857V171.8l8.21-4.857 8.251 4.857-8.251 4.857Zm20.032-4.857 8.211-4.857 8.251 4.857-8.251 4.857-8.211-4.857Zm-14.1 34.6v-9.714l8.211 4.857v9.669l-8.21-4.812Zm14.1 15.215 8.211 4.857 8.251-4.857v9.669l-8.251 4.857-8.211-4.857v-9.669Zm28.238-49.815 8.21-4.857 8.251 4.857v9.669l-8.251 4.857v-9.669l-8.21-4.857Zm8.21 38.043.046-16.593 8.21-4.857v26.347l-22.349 13.108v-9.714l14.093-8.291Zm-5.887-3.44-8.211 4.812v-9.669l8.211-4.857Zm0-26.306.045 9.714-14.139 8.3v16.629l-8.211 4.812-8.211-4.812v-16.633l-14.139-8.3V180.1l8.246-4.857 14.054 8.336 14.139-8.336 8.251 4.857Zm-44.66-16.588 22.31-13.153 22.35 13.153-8.211 4.857-14.139-8.336-14.1 8.336-8.211-4.857Z"/></svg>