<svg xmlns="http://www.w3.org/2000/svg" viewBox="0 0 256 256"><path d="M70.591 256c65.692 0 65.692-.978 76.831-4.285 14.556-4.321-41.1-42.845-76.831-42.845s-64.7 10.551-64.7 23.565S34.86 256 70.591 256Z"/><path d="m219.758 55.61 3.022 3.256-2.641 3.572C134.464 178.277 85.11 230.725 64.169 223.691c-12.755-4.285-25.546-17.171-38.338-35.882-4.5-6.577-8.718-13.5-12.558-20.4-2.557-4.589-4.722-8.775-5.845-11.133a27.725 27.725 0 0 1-2.519-7.293l-.057-.292c-.2-1.033-.27-1.36-.42-1.924A116.8 116.8 0 0 1 174.209 14.792l.446.279q21.188 14.751 45.103 40.539Zm-51.007-31.6A106.114 106.114 0 0 0 14.785 144.025c.232.872.336 1.365.582 2.63l.05.259a17.3 17.3 0 0 0 1.68 4.758c1.025 2.151 3.085 6.135 5.533 10.529 3.691 6.624 7.746 13.277 12.044 19.563 11.557 16.905 23.018 28.452 32.906 31.773 13.187 4.43 62.832-48.123 141.289-153.881Q187.5 37.1 168.751 24.013Z"/><path fill="#ec1c79" d="M168.751 24.013A106.114 106.114 0 0 0 14.785 144.025c.232.872.336 1.365.582 2.63l.05.259a17.3 17.3 0 0 0 1.68 4.758c1.025 2.151 3.085 6.135 5.533 10.529 3.691 6.624 7.746 13.277 12.044 19.563 11.557 16.905 23.018 28.452 32.906 31.773 13.187 4.43 62.832-48.123 141.289-153.881Q187.5 37.1 168.751 24.013Z"/><path d="M138.711 254.929a116.753 116.753 0 1 1 116.753-116.753 116.753 116.753 0 0 1-116.753 116.753Zm0-10.711A106.042 106.042 0 1 0 32.669 138.176a106.042 106.042 0 0 0 106.042 106.042Z"/><path fill="#fff" d="M138.711 244.218A106.042 106.042 0 1 0 32.669 138.176a106.042 106.042 0 0 0 106.042 106.042Z"/><path fill-rule="evenodd" d="m59.388 159.9-14.036-42.29h12.3l7.314 24.29 8.1-24.413h10.015l8.1 24.413 7.319-24.29h12.056L96.517 159.9H86.38l-8.457-24.173-8.4 24.173Zm55.784-.3v-41.99h33.771v9.9h-22.254v6.359h20.154v9.177h-20.154v6.654h22.554v9.9Zm50.266 0v-31.793h-12.6v-10.2h36.829v10.2h-12.6V159.6Zm29.332 0v-41.99h11.637v15.716h14.936V117.61h11.636v41.99h-11.636v-15.957h-14.936V159.6Z"/><path d="M7.493 104.98a6 6 0 0 1 5.365-10.73L30 102.819a6 6 0 1 1-5.365 10.73ZM5.52 133.4a6 6 0 0 1 5.027-10.9l17.138 7.91a6 6 0 1 1-5.027 10.892Z"/><path fill="#d7d7d7" d="m177.563 194.414 39.207 22.769V130.5Z"/><path fill="#878787" d="M216.77 130.5v86.683l39.206-22.769Z"/><path fill="#fff" d="m216.781 176.911 39.195 17.5-39.195 22.763Z"/><path fill="#999" d="M216.77 176.906h.011v40.262l-.011.011-39.208-22.769Z"/><path fill="#d7d7d7" d="M177.563 201.718 216.77 256v-31.524Z"/><path fill="#878787" d="M216.77 224.476V256L256 201.719Z"/></svg>