<svg xmlns="http://www.w3.org/2000/svg" viewBox="0 0 256 256"><path d="M70.59 256c65.69 0 65.69-.98 76.83-4.28 14.56-4.32-41.1-42.85-76.83-42.85s-64.7 10.55-64.7 23.57S34.86 256 70.59 256"/><path d="m219.76 55.61 3.02 3.26-2.64 3.57C134.47 178.28 85.11 230.73 64.17 223.69c-12.75-4.28-25.55-17.17-38.34-35.88-4.5-6.58-8.72-13.5-12.56-20.39-2.56-4.59-4.72-8.78-5.85-11.13-1.43-3.01-2.04-4.86-2.52-7.29q-.03-.15-.06-.29c-.2-1.03-.27-1.36-.42-1.92-2.58-9.72-3.9-19.78-3.9-30.02C.54 52.27 52.81 0 117.29 0c20.2 0 39.67 5.14 56.92 14.79l.45.28c14.13 9.83 29.15 23.35 45.1 40.54m-51.01-31.6c-15.61-8.68-33.19-13.3-51.46-13.3-58.57 0-106.04 47.48-106.04 106.04 0 9.31 1.2 18.45 3.54 27.27.23.87.34 1.37.58 2.63q.03.13.05.26c.31 1.57.64 2.57 1.68 4.76 1.03 2.15 3.09 6.14 5.53 10.53 3.69 6.62 7.75 13.28 12.04 19.56 11.56 16.91 23.02 28.45 32.91 31.77 13.19 4.43 62.83-48.12 141.29-153.88-14.24-15.03-27.62-26.92-40.12-35.64"/><path d="M168.75 24.01c-15.61-8.68-33.19-13.3-51.46-13.3-58.57 0-106.04 47.48-106.04 106.04 0 9.31 1.2 18.45 3.54 27.27.23.87.34 1.37.58 2.63q.03.13.05.26c.31 1.57.64 2.57 1.68 4.76 1.03 2.15 3.09 6.14 5.53 10.53 3.69 6.62 7.75 13.28 12.04 19.56 11.56 16.91 23.02 28.45 32.91 31.77 13.19 4.43 62.83-48.12 141.29-153.88-14.24-15.03-27.62-26.92-40.12-35.64" style="fill:#ec1c79"/><path d="M138.71 254.93c-64.48 0-116.75-52.27-116.75-116.75S74.23 21.42 138.71 21.42s116.75 52.27 116.75 116.75-52.27 116.75-116.75 116.75Zm0-10.71c58.57 0 106.04-47.48 106.04-106.04S197.27 32.14 138.71 32.14 32.67 79.62 32.67 138.18s47.48 106.04 106.04 106.04"/><path d="M138.71 244.22c58.57 0 106.04-47.48 106.04-106.04S197.27 32.14 138.71 32.14 32.67 79.62 32.67 138.18s47.48 106.04 106.04 106.04" style="fill:#fff"/><path d="m59.39 159.9-14.04-42.29h12.3l7.32 24.29 8.1-24.41h10.02l8.1 24.41 7.32-24.29h12.06L96.53 159.9H86.39l-8.46-24.17-8.4 24.17zm55.78-.3v-41.99h33.77v9.9h-22.25v6.36h20.15v9.18h-20.15v6.66h22.55v9.9h-34.07Zm50.27 0v-31.79h-12.6v-10.2h36.83v10.2h-12.6v31.79h-11.64Zm29.33 0v-41.99h11.64v15.72h14.94v-15.72h11.64v41.99h-11.64v-15.96h-14.94v15.96z" style="fill-rule:evenodd"/><path d="M7.49 104.98a6 6 0 0 1-2.68-8.05 6 6 0 0 1 8.05-2.68L30 102.82a6 6 0 0 1 2.68 8.05 6 6 0 0 1-8.05 2.68zM5.52 133.4a5.994 5.994 0 0 1-2.93-7.96 5.994 5.994 0 0 1 7.96-2.93l17.14 7.91a5.994 5.994 0 0 1 2.93 7.96 5.994 5.994 0 0 1-7.96 2.93z"/><circle cx="193.25" cy="193.25" r="62.75" style="fill:#0052ff"/><path d="M245 193.27c0 28.57-23.21 51.73-51.84 51.73s-49.45-20.85-51.66-47.39h68.52v-8.7H141.5c2.21-26.54 24.5-47.39 51.66-47.39 28.63 0 51.84 23.16 51.84 51.73Z" style="fill:#fff;fill-rule:evenodd"/></svg>