<svg baseProfile="basic" xmlns="http://www.w3.org/2000/svg" viewBox="0 0 256 256"><g fill="#FFF"><path d="M219.9 48L189 63.8 40.2 139.6c-.5-3.8-.8-7.7-.8-11.6.1-49 39.8-88.6 88.8-88.6 15.1 0 29.9 3.9 43.1 11.3l17.6-9 2.6-1.3C143.2 5.2 75.5 16 40.3 64.4A108.5 108.5 0 0019.7 128c0 2.8.1 5.5.3 8.2.6 7.9-3.6 15.4-10.7 19L0 160.1v22.1l27.4-14 8.9-4.5 8.7-4.5 156.9-80 17.6-9L256 51.7V29.6L219.9 48zM256 73.9L53.9 176.8l-17.6 9L0 204.3v22.1L36 208l30.8-15.7 149-75.9c.5 3.9.8 7.8.8 11.7 0 49-39.8 88.6-88.7 88.6-15.2 0-30.1-3.9-43.3-11.3l-1.1.6-19.1 9.7c48.4 35.1 116.1 24.4 151.3-24 13.4-18.5 20.7-40.7 20.7-63.6 0-2.8-.1-5.6-.3-8.3-.6-7.9 3.6-15.4 10.7-19l9.3-4.7V73.9z"/></g></svg>