<svg baseProfile="basic" xmlns="http://www.w3.org/2000/svg" viewBox="0 0 256 256"><linearGradient id="a" gradientUnits="userSpaceOnUse" x1="601.8" y1="8836.4" x2="790.6" y2="8836.4" gradientTransform="matrix(1.25 0 0 -1.25 -742.25 11173.5)"><stop offset="0" stop-color="#11aae2"/><stop offset=".59" stop-color="#0880b7"/><stop offset="1" stop-color="#016197"/></linearGradient><path fill="url(#a)" d="M166 6.9c-16.8 9.9-26.7 27.7-26.7 46.5 0 9.9 4 19.8 8.9 28.7 4 7.9 5.9 21.8-7.9 28.7-9.8 5.9-22.7 2-28.6-7.9C105.8 95 98.9 87.1 90 81.2c-16.8-9.9-36.5-9.9-53.3 0S10 108.9 10 127.8s9.8 36.7 26.7 46.6c16.8 9.9 36.5 9.9 53.3 0 8.9-5 15.8-12.9 20.7-21.8 4-6.9 14.8-15.9 28.6-7.9 9.8 5.9 12.8 18.8 7.9 28.7-4.9 8.9-7.9 18.8-7.9 28.7 0 18.8 9.8 36.7 26.7 46.5 16.8 9.9 36.5 9.9 53.3 0S246 220.9 246 202s-9.9-36.7-26.7-46.6c-8.9-5-18.8-6.9-29.6-6.9-8.9 0-20.7-5.9-20.7-20.8 0-11.9 8.9-20.8 20.7-20.8 9.8 0 20.7-2 29.6-6.9 16.8-9.9 26.7-27.7 26.7-46.5S236.1 16.8 219.3 7c-7.9-5-17.7-7-26.7-7-8.8-.1-18.7 2-26.6 6.9"/></svg>