<svg baseProfile="basic" xmlns="http://www.w3.org/2000/svg" viewBox="0 0 256 256"><path fill="#FFF" d="M123.6 0h7.7c4.8.3 9.6.6 14.4 1.3C162.1 3.6 178 9 192.2 17.4c-3.3 2.6-6.8 4.9-10.1 7.4C159.4 41 136.8 57.4 114 73.6c-1.8-1.5-3.4-3.3-5.2-4.9-5.2-5-10.2-10.1-15.5-15-1.9.7-3.6 1.7-5.4 2.7C76.1 63 66 72.7 58.7 84.1c-9.6-12.1-18.8-24.5-27.8-37-.3-.4-.5-.8-.8-1.3 3.4-4.1 7.1-8 11-11.6C60.7 16 86.1 4.1 112.8 1c3.6-.5 7.2-.6 10.8-1zm62.2 47.9c8-6.1 16.1-12.1 24.3-17.9 16.9 14 30 32.6 37.7 53.1 9.8 25.8 10.8 54.8 2.9 81.2-2.8 9.3-6.6 18.3-11.4 26.7-.8-.6-1.3-1.5-1.9-2.3L191 127.3c-3-4-6.1-8-9.1-12 6.8-7.3 13.9-14.3 20.7-21.6-4.7-10.2-11.5-19.4-20-26.9-3.3-3-7-5.6-10.6-8.1 4.5-3.8 9.2-7.3 13.8-10.8M9 81.1c2.3-5.7 4.9-11.3 8.1-16.6 4.5 5.7 8.8 11.5 13.2 17.3 14 18.4 28.1 36.8 42.1 55.2.9 1.2 1.9 2.4 2.7 3.7-7.1 7.4-14.3 14.6-21.4 22 1.7 4 4 7.8 6.4 11.4 3.6 5.4 7.9 10.3 12.7 14.7 3.5 3.2 7.3 6 11.2 8.7-3.4 2.8-6.9 5.5-10.4 8.2-6.2 4.8-12.5 9.4-18.8 14.1-3 2.1-5.9 4.4-8.9 6.4-19.9-16.8-34.5-39.6-41.3-64.6-2.8-9.9-4.1-20.1-4.6-30.4v-6.4c.1-2.2.3-4.4.4-6.7 1-12.7 3.9-25.1 8.6-37zM188.9 183c3.2-3.4 5.9-7.2 8.5-11.1 2.9 3.5 5.6 7.1 8.4 10.7 6.9 9 13.7 18.1 20.2 27.3-1.9 2.6-4.2 4.9-6.4 7.2-18.4 18.9-42.8 32-68.8 36.7-6.1 1.2-12.4 1.7-18.6 2.1H123c-2.7-.3-5.5-.4-8.3-.7-17.9-1.9-35.4-7.5-50.9-16.7 5.3-4 10.7-8 16-12 20.3-15.2 40.7-30.3 61-45.5 3.4 3.2 6.7 6.6 10.1 9.8 4 3.8 7.8 7.8 11.8 11.5 10-4.5 18.9-11.2 26.2-19.3"/></svg>